<?xml version="1.0" encoding="utf-8"?>
<!-- Generator: Adobe Illustrator 28.0.0, SVG Export Plug-In . SVG Version: 6.00 Build 0)  -->
<svg version="1.1" id="Layer_1" xmlns="http://www.w3.org/2000/svg" xmlns:xlink="http://www.w3.org/1999/xlink" x="0px" y="0px"
	 viewBox="0 0 50 50" style="enable-background:new 0 0 50 50;" xml:space="preserve">
<path d="M47.3,39.2v4.4c0,1-0.8,1.7-1.7,1.7H19.7c-1,0-1.7-0.8-1.7-1.7v-4.4c0-4.1,2.9-7.6,6.8-8.3c-2.3-2.1-3.8-5.1-3.8-8.4
	c0-6.7,5.8-12,12.6-11.2c5.3,0.6,9.6,5,10,10.3c0.3,3.7-1.2,7-3.7,9.3C44.1,31.3,47.3,34.9,47.3,39.2z M19.1,29.5
	c-1.2-2.2-1.8-4.6-1.8-7.1c0-4.3,1.8-8.3,5-11.2c1.3-1.1,2.7-2,4.2-2.6c-1.8-1.9-4.2-3.2-7-3.5C12.7,4.3,7,9.6,7,16.3
	c0,3.3,1.5,6.3,3.8,8.4c-3.9,0.8-6.8,4.2-6.8,8.3v4.4c0,1,0.8,1.7,1.7,1.7h8.6v0C14.3,35.3,16.2,31.7,19.1,29.5z"/>
</svg>
