<?xml version="1.0" encoding="utf-8"?>
<!-- Generator: Adobe Illustrator 28.0.0, SVG Export Plug-In . SVG Version: 6.00 Build 0)  -->
<svg version="1.1" id="Слой_1" xmlns="http://www.w3.org/2000/svg" xmlns:xlink="http://www.w3.org/1999/xlink" x="0px" y="0px"
	 viewBox="0 0 232.5 70" style="enable-background:new 0 0 232.5 70;" xml:space="preserve">
<style type="text/css">
	.st0{fill:#FFFBF4;}
</style>
<path class="st0" d="M14.1999998,32.2999992h5.1999998v27.3999977h-5.1999998V43L5.0999999,59.7000008H0V32.2999992h5.0999999
	v16.7999992L14.1999998,32.2999992z M36.7000008,42.2999992l-2.9000015,4.7999992l-2.8999996-4.7999992l-2.1000004-3.4000015
	h-5.3999996v20.8999977h5.1999989V48.4000015l5.2000008,8.7999992L39,48.4000015v11.4000015h5.2000008v-21h-5.4000015
	L36.7000008,42.2999992z M48.2000008,59.7000008h5.2000008V44.0999985h5.2000008v15.7000008h5.2000008v-21H48.2000008V59.7000008z
	 M67.8000031,38.7999992H83.5v20.8999977H73v4.5999985h-5.1999969V38.7999992z M73,54.5h5.1999969V44.0999985H73V54.5z
	 M87.4000015,38.7999992h15.6999969v20.8999977H87.4000015V38.7999992z M92.5999985,54.5h5.1999969V44.0999985h-5.1999969V54.5z
	 M106.9000015,38.7999992h15.6999969v7.7999992l-2.1999969,2.5999985l2.1999969,2.5999985v7.9000015h-15.6999969
	C106.9000015,59.7000008,106.9000015,38.7999992,106.9000015,38.7999992z M112.1999969,47.2999992H116l1.4000015-1.5999985
	v-1.5999985h-5.1999969C112.2000046,44.1000023,112.2000046,47.2999992,112.1999969,47.2999992z M112.1999969,54.5h5.1999969
	v-1.5999985l-1.4000015-1.5999985h-3.8000031C112.1999893,51.3000031,112.1999893,54.5,112.1999969,54.5z M131.8000031,50.5999985
	V38.7999992H126.5v20.8999977h5l5.8999939-11.7999992v11.7999992h5.1999969V38.7999992h-5L131.8000031,50.5999985z
	 M153.8000031,57.0999985h1V62h-2.6000061v-2.2999992H147.5V62h-2.6000061v-4.9000015h1.1999969l0.8000031-7.7999992h6.8000031
	v7.7999992H153.8000031z M151.1999969,51.9000015H149.5l-0.6000061,5.2999992h2.3000031V51.9000015z M156,49.2999992h7.8000031
	v3.9000015L162.6999969,54.5l1.1000061,1.2999992v3.9000015H156V49.2999992z M158.6000061,53.5H160.5l0.6999969-0.7999992
	v-0.7999992h-2.6000061L158.6000061,53.5L158.6000061,53.5z M158.6000061,57.0999985h2.6000061v-0.7999992L160.5000153,55.5
	h-1.8999939L158.6000061,57.0999985L158.6000061,57.0999985z M165.8000031,49.2999992h7.8000031v10.3999977h-7.8000031v-6.4000015
	H171v-1.5h-5.1999969V49.2999992z M171,55.4000015h-2.6000061v1.7999992H171V55.4000015z M192.1999969,38.7999992H187V54.5
	h-5.1999969V38.7999992h-5.1999969v20.8999977h12.5v4.5999985h5.1999969v-9.7999992h-2V38.7999992H192.1999969z M202,50.5999985
	V38.7999992h-5.1999969v20.8999977h5l5.8999939-11.7999992v11.7999992h5.1999969V38.7999992h-5L202,50.5999985z M232.5,38.7999992
	v20.8999977h-5.1999969v-6.4000015h-2.6000061l-2.8000031,6.4000015h-5l2.8000031-6.4000015h-2.8000031V38.7999992H232.5z
	 M227.3000031,44.0999985h-5.1999969v5.2999992h5.1999969V44.0999985z M173.6000061,38.7999992h-18.1999969L173.6000061,25.5
	V5.4000001h-27.3000031v12.2000008H154v-4.5h11.8000031v8.3000011L146.3000031,36v10.5999985h27.3000031V38.7999992z"/>
</svg>
