<?xml version="1.0" encoding="utf-8"?>
<!-- Generator: Adobe Illustrator 28.0.0, SVG Export Plug-In . SVG Version: 6.00 Build 0)  -->
<svg version="1.1" id="Слой_1" xmlns="http://www.w3.org/2000/svg" xmlns:xlink="http://www.w3.org/1999/xlink" x="0px" y="0px"
	 viewBox="0 0 247 144.4" style="enable-background:new 0 0 247 144.4;" xml:space="preserve">
<style type="text/css">
	.st0{fill:#FFFBF4;}
</style>
<g>
	<path d="M241,117v27.4H11V117C11,53.6,62.6,2,126,2S241,53.6,241,117z"/>
	<path class="st0" d="M235,117v27.4H17V117C17,56.9,65.9,8,126,8S235,56.9,235,117z"/>
	<path d="M229,117v27.4H23V117C23,60.1,69.1,14,126,14S229,60.1,229,117z"/>
</g>
<path class="st0" d="M103.2,55.2c-1.2-1.7-1.8-3.9-1.7-6.6c0.1-2.3,0.7-4.2,1.6-5.9c1-1.6,2.3-2.9,3.9-3.8c1.5-0.8,3.2-1.2,4.9-1.2
	c2.1,0.1,3.7,0.7,4.8,1.8c1.1,1.1,1.9,2.4,2.3,4.1c0.4,1.7,0.7,3.4,0.7,5.1c-0.1,2.3-0.6,4.1-1.6,5.4c-1.1,1.3-2.4,2.2-4.1,2.8
	c-1.7,0.5-3.4,0.8-5.1,0.8C106.4,57.8,104.5,56.9,103.2,55.2z M139.6,56.4c-1.3-1.4-1.9-4-1.9-7.7c0.1-2.4,0.6-4.5,1.5-6.3
	c1-1.8,2.2-3.2,3.7-4.1c1.5-0.9,3-1.3,4.4-1.2c1.8,0.1,3.2,0.7,4.2,1.9s1.6,2.6,2,4.3s0.6,3.5,0.6,5.4c0,2.4-0.5,4.3-1.4,5.7
	s-2.1,2.4-3.5,3c-1.5,0.6-3,0.9-4.4,0.9C142.5,58.5,140.8,57.8,139.6,56.4z"/>
<path class="st0" d="M139.1,61.8c0.2,0.4,0.4,0.9,0.5,1.3c0.2,0.4,0.3,0.8,0.3,1.1c-0.5,0.6-1.2,1.1-2.3,1.6s-2.3,0.9-3.9,1.2
	c-1.5,0.3-3.2,0.5-5,0.6c-1.5,0-3-0.1-4.4-0.4s-2.6-0.7-3.6-1.1s-1.9-0.8-2.5-1.1c-0.6-0.3-0.9-0.5-1-0.5c0,0,0.1-0.2,0.3-0.5
	c0.2-0.3,0.4-0.7,0.6-1.2l0.6-1.1l0.3-0.5c0.7,0.4,1.4,0.8,2.2,1.3c0.8,0.5,1.8,0.9,2.8,1.2c1.1,0.3,2.4,0.5,3.8,0.5
	c2,0,3.7-0.2,5-0.5c1.4-0.3,2.6-0.8,3.5-1.2c0.9-0.5,1.7-1,2.2-1.4C138.7,61,138.9,61.4,139.1,61.8z"/>
</svg>
