<?xml version="1.0" encoding="utf-8"?>
<!-- Generator: Adobe Illustrator 28.0.0, SVG Export Plug-In . SVG Version: 6.00 Build 0)  -->
<svg version="1.1" id="Слой_1" xmlns="http://www.w3.org/2000/svg" xmlns:xlink="http://www.w3.org/1999/xlink" x="0px" y="0px"
	 viewBox="0 0 247 243" style="enable-background:new 0 0 247 243;" xml:space="preserve">
<style type="text/css">
	.st0{fill:#FFFBF4;}
</style>
<g>
	<path d="M23,242c-6.6171875,0-12-5.3828125-12-12V117C11,53.5888672,62.5888672,2,126,2s115,51.5888672,115,115v113
		c0,6.6171875-5.3828125,12-12,12H23z"/>
	<path class="st0" d="M23,236c-3.3134766,0-6-2.6865234-6-6V117C17,56.8974609,65.8974609,8,126,8s109,48.8974609,109,109v113
		c0,3.3134766-2.6865234,6-6,6H23z"/>
	<path d="M126,14C69.1146851,14,23,60.1147461,23,117v113h206V117C229,60.1147461,182.8853149,14,126,14z"/>
</g>
<path class="st0" d="M134.7041016,124.7666016c-1.2216797-1.7363281-1.8007812-3.9238281-1.7363281-6.5595703
	c0.1279297-2.2519531,0.6757812-4.2128906,1.640625-5.8847656c1.0273438-1.6083984,2.3144531-2.8623047,3.8583984-3.7617188
	c1.5429688-0.8369141,3.1835938-1.2226562,4.9199219-1.1582031c2.0576172,0.1279297,3.6650391,0.7382812,4.8232422,1.8330078
	c1.0927734,1.0927734,1.8642578,2.4433594,2.3154297,4.0517578c0.4492188,1.671875,0.6748047,3.3759766,0.6748047,5.1123047
	c-0.0644531,2.3154297-0.6123047,4.1152344-1.6396484,5.4023438c-1.0947266,1.2861328-2.4453125,2.21875-4.0517578,2.7978516
	c-1.6728516,0.5136719-3.3759766,0.7714844-5.1132812,0.7714844
	C137.8876953,127.3066406,135.9902344,126.4384766,134.7041016,124.7666016z M171.0722656,125.9238281
	c-1.2871094-1.4150391-1.9287109-3.9882812-1.9287109-7.7167969c0.0625-2.4453125,0.578125-4.5341797,1.5429688-6.2705078
	c0.9648438-1.8017578,2.1855469-3.1513672,3.6660156-4.0517578c1.4785156-0.9013672,2.9570312-1.2871094,4.4375-1.1572266
	c1.7998047,0.0634766,3.2148438,0.7070312,4.2441406,1.9287109c0.9648438,1.1582031,1.640625,2.6044922,2.0263672,4.3417969
	c0.3857422,1.7363281,0.578125,3.5361328,0.578125,5.4013672c0,2.4433594-0.4824219,4.3417969-1.4462891,5.6923828
	c-0.9013672,1.4130859-2.0595703,2.4111328-3.4736328,2.9902344c-1.4794922,0.578125-2.9580078,0.8681641-4.4375,0.8681641
	C174.0302734,128.0136719,172.2929688,127.3378906,171.0722656,125.9238281z"/>
<path class="st0" d="M132.9695282,151.29953c-0.5081177-1.1743317-0.9782104-2.3682556-1.4090729-3.5812073
	c-0.4694977-1.213562-0.7826843-2.1721497-0.9389801-2.8763885c1.2527618-1.6051941,3.3268585-3.052887,6.2222595-4.3442841
	c2.897171-1.3312225,6.4195557-2.3878784,10.5671234-3.1699677c4.1095428-0.8218994,8.6683807-1.3312225,13.6788635-1.5267334
	c4.1873932-0.0790405,8.1596527,0.2935791,11.9167786,1.1154785c3.7178955,0.8219147,7.0245514,1.8197327,9.9217377,2.9940491
	c2.8561707,1.1345215,5.1263733,2.1721497,6.8094177,3.1111298c1.6824493,0.9003601,2.5631866,1.3888702,2.6422272,1.4679108
	c-0.0398102,0.0778503-0.2935791,0.5669556-0.7636719,1.4679108c-0.4694824,0.9389801-0.9782104,1.995636-1.5261383,3.1699524
	l-1.5849915,3.1111298l-0.7042389,1.4090729c-1.800705-1.1356964-3.8159485-2.3094177-6.046936-3.5223846
	c-2.2309723-1.2527618-4.8137817-2.3290253-7.7489929-3.2287903c-2.9750366-0.8611298-6.4385834-1.350235-10.3912201-1.4673157
	c-5.4009399-0.0398102-10.0001831,0.4106598-13.7959442,1.350235c-3.8355713,0.9389954-7.0049286,2.0735016-9.5098877,3.4047089
	c-2.5043488,1.3692627-4.5207825,2.6416321-6.046936,3.8159637
	C133.9085083,153.3736115,133.478241,152.4732666,132.9695282,151.29953z"/>
</svg>
