<?xml version="1.0" encoding="utf-8"?>
<!-- Generator: Adobe Illustrator 28.0.0, SVG Export Plug-In . SVG Version: 6.00 Build 0)  -->
<svg version="1.1" id="Слой_1" xmlns="http://www.w3.org/2000/svg" xmlns:xlink="http://www.w3.org/1999/xlink" x="0px" y="0px"
	 viewBox="0 0 666 232" style="enable-background:new 0 0 666 232;" xml:space="preserve">
<style type="text/css">
	.st0{fill:#FFFBF4;}
</style>
<path class="st0" d="M54.9,54.2h23.2l55.3,127.1h-31.6l-11-26.9H41.5l-10.6,26.9H0L54.9,54.2z M65.7,91.2l-15.4,39.5h31.1L65.7,91.2
	z"/>
<path class="st0" d="M186.7,115.6H163v29.1c0,2.4,0.1,4.6,0.4,6.6c0.2,2,0.8,3.7,1.6,5.1c0.8,1.4,2.1,2.5,3.9,3.3
	c1.7,0.8,4,1.2,6.9,1.2c1.4,0,3.3-0.1,5.7-0.4c2.3-0.3,4.1-1,5.3-2.1v22.4c-3,1.1-6.1,1.8-9.3,2.2c-3.2,0.4-6.4,0.5-9.5,0.5
	c-4.6,0-8.7-0.5-12.6-1.4c-3.8-1-7.2-2.5-10.1-4.6c-2.9-2.1-5.1-4.8-6.7-8.2c-1.6-3.3-2.4-7.4-2.4-12.2v-41.5h-17.2V94.1h17.2V68.2
	H163v25.9h23.7V115.6z"/>
<path class="st0" d="M259.7,115.6H236v29.1c0,2.4,0.1,4.6,0.4,6.6c0.2,2,0.8,3.7,1.6,5.1c0.8,1.4,2.1,2.5,3.9,3.3
	c1.7,0.8,4,1.2,6.9,1.2c1.4,0,3.3-0.1,5.7-0.4c2.3-0.3,4.1-1,5.3-2.1v22.4c-3,1.1-6.1,1.8-9.3,2.2c-3.2,0.4-6.4,0.5-9.5,0.5
	c-4.6,0-8.7-0.5-12.6-1.4c-3.8-1-7.2-2.5-10.1-4.6c-2.9-2.1-5.1-4.8-6.7-8.2c-1.6-3.3-2.4-7.4-2.4-12.2v-41.5h-17.2V94.1h17.2V68.2
	H236v25.9h23.7V115.6z"/>
<path class="st0" d="M271.6,66.6c0-4.3,1.5-8,4.6-11c3.1-3.1,6.7-4.6,11-4.6s8,1.5,11,4.6c3.1,3.1,4.6,6.7,4.6,11
	c0,4.3-1.5,8-4.6,11c-3.1,3.1-6.7,4.6-11,4.6s-8-1.5-11-4.6C273.1,74.6,271.6,70.9,271.6,66.6z M273.8,94.1h26.9v87.2h-26.9V94.1z"
	/>
<path class="st0" d="M371.1,122.3c-1.3-1.9-3.2-3.5-5.6-4.8c-2.4-1.3-5-1.9-7.7-1.9c-6.8,0-12.1,2-15.9,6.1c-3.8,4.1-5.7,9.4-5.7,16
	c0,6.6,1.9,11.9,5.7,16c3.8,4.1,9.1,6.1,15.9,6.1c3,0,5.6-0.7,7.7-2c2.2-1.3,4-2.9,5.6-4.7l17.8,18.7c-4.2,4.3-9.1,7.3-14.8,9.1
	c-5.7,1.7-11.1,2.6-16.2,2.6c-6.7,0-13-1.1-18.9-3.2c-5.9-2.2-11.1-5.2-15.4-9.2c-4.4-4-7.8-8.8-10.3-14.5
	c-2.5-5.6-3.8-11.9-3.8-18.9c0-6.9,1.3-13.2,3.8-18.8c2.5-5.6,6-10.4,10.3-14.5c4.4-4,9.5-7.1,15.4-9.2c5.9-2.2,12.2-3.2,18.9-3.2
	c5.1,0,10.6,0.9,16.2,2.6c5.7,1.7,10.6,4.8,14.8,9.1L371.1,122.3z"/>
<polygon class="st0" points="665.9,163.4 665.9,163.3 665.9,163.3 612.6,17.5 367,17.5 420.4,163.4 367,216.7 612.6,216.7 
	665.9,163.4 665.9,163.4 "/>
</svg>
