<?xml version="1.0" encoding="utf-8"?>
<!-- Generator: Adobe Illustrator 28.0.0, SVG Export Plug-In . SVG Version: 6.00 Build 0)  -->
<svg version="1.1" id="Слой_1" xmlns="http://www.w3.org/2000/svg" xmlns:xlink="http://www.w3.org/1999/xlink" x="0px" y="0px"
	 viewBox="0 0 1938 2436" style="enable-background:new 0 0 1938 2436;" xml:space="preserve">
<style type="text/css">
	.st0{fill:#FF3535;}
	.st1{fill:#FF5F5F;}
	.st2{opacity:0.4;fill:#BD0D00;}
</style>
<polygon class="st0" points="1578.3641357,2434.5 82.6539001,2434.5 337.118866,-1.5 1832.8291016,-1.5 "/>
<polygon class="st1" points="1420.3361816,2434 1232.3278809,2434 1513.2532959,-2 1701.2615967,-2 "/>
<polygon class="st2" points="1570.5539551,-2 1673.4084473,-2 1394.9433594,1327 "/>
<polygon class="st1" points="1107.4545898,2435 950.9353638,2435 1215.9996338,-1 1372.5187988,-1 "/>
<polygon class="st2" points="1263.703125,-1 1349.3308105,-1 1190.4360352,1306 "/>
<polygon class="st1" points="363.3118896,2434 175.3036041,2434 456.2290039,-2 644.2372437,-2 "/>
<polygon class="st2" points="513.5296631,-2 616.3842163,-2 350.4529419,1327 "/>
<polygon class="st1" points="706.3095093,2434 494.221344,2434 787.2758789,-2 999.3640137,-2 "/>
<polygon class="st2" points="851.9155273,-2 967.9435425,-2 842.1098633,962 "/>
<polygon class="st2" points="331.0025635,2435 228.1480103,2435 506.6131287,1106 "/>
<polygon class="st2" points="637.8533936,2434 552.225708,2434 711.1205444,1127 "/>
<polygon class="st2" points="1388.0268555,2435 1285.1723633,2435 1551.1035156,1106 "/>
<polygon class="st2" points="1077.4941406,2435 961.4660645,2435 1087.2996826,1471 "/>
</svg>
