<svg xmlns="http://www.w3.org/2000/svg" width="500" height="600" stroke-linecap="round" stroke-linejoin="round"><path d="M6.521739130434782,216.54588450556216 Q6.521739130434782,216.54588450556216 6.521739130434782,217.63284102730128 Q6.521739130434782,218.7197975490404 6.521739130434782,220.8937105925187 Q6.521739130434782,223.06762363599694 7.065217391304348,224.69805841860563 Q7.608695652173913,226.32849320121431 7.608695652173913,229.04588450556213 Q7.608695652173913,231.76327580990997 7.608695652173913,233.93718885338825 Q7.608695652173913,236.1111018968665 7.608695652173913,236.65458015773606 Q7.608695652173913,237.19805841860563 7.608695652173913,238.28501494034475 Q7.608695652173913,239.37197146208388 8.152173913043478,241.00240624469257 Q8.695652173913043,242.63284102730128 8.695652173913043,243.17631928817084 Q8.695652173913043,243.7197975490404 8.695652173913043,244.26327580990997 Q8.695652173913043,244.80675407077953 8.695652173913043,245.8937105925187 Q8.695652173913043,246.9806671142578 9.23913043478261,248.6111018968665 Q9.782608695652174,250.2415366794752 9.782608695652174,250.2415366794752 Q9.782608695652174,250.2415366794752 9.782608695652174,250.78501494034475 Q9.782608695652174,251.32849320121431 9.782608695652174,252.41544972295344 Q9.782608695652174,253.5024062446926 9.782608695652174,254.04588450556216 Q9.782608695652174,254.58936276643172 9.782608695652174,255.13284102730128 Q9.782608695652174,255.67631928817084 9.782608695652174,256.21979754904044 Q9.782608695652174,256.76327580991 9.782608695652174,257.30675407077956 Q9.782608695652174,257.8502323316491 9.782608695652174,257.8502323316491 Q9.782608695652174,257.8502323316491 9.782608695652174,258.3937105925187 Q9.782608695652174,258.93718885338825 10.326086956521738,259.4806671142578 Q10.869565217391305,260.0241453751274 10.869565217391305,260.0241453751274 Q10.869565217391305,260.0241453751274 10.869565217391305,261.1111018968665 Q10.869565217391305,262.1980584186056 10.869565217391305,262.7415366794752 Q10.869565217391305,263.28501494034475 10.869565217391305,263.8284932012143 Q10.869565217391305,264.3719714620839 10.869565217391305,264.91544972295344 Q10.869565217391305,265.458927983823 10.869565217391305,266.00240624469257 Q10.869565217391305,266.5458845055621 11.41304347826087,267.0893627664317 Q11.956521739130434,267.63284102730125 11.956521739130434,267.63284102730125 Q11.956521739130434,267.63284102730125 11.956521739130434,268.1763192881708 Q11.956521739130434,268.71979754904044 11.956521739130434,269.26327580991 Q11.956521739130434,269.80675407077956 12.5,269.80675407077956 Q13.043478260869565,269.80675407077956 13.043478260869565,269.80675407077956 Q13.043478260869565,269.80675407077956 13.586956521739129,270.3502323316491 Q14.130434782608695,270.8937105925187 14.130434782608695,270.8937105925187 Q14.130434782608695,270.8937105925187 14.673913043478262,271.43718885338825 Q15.217391304347826,271.9806671142578 15.76086956521739,271.9806671142578 Q16.304347826086957,271.9806671142578 16.847826086956523,271.9806671142578 Q17.391304347826086,271.9806671142578 17.93478260869565,272.5241453751274 Q18.478260869565215,273.06762363599694 19.02173913043478,273.06762363599694 Q19.565217391304348,273.06762363599694 19.565217391304348,273.06762363599694 Q19.565217391304348,273.06762363599694 20.108695652173914,273.6111018968665 Q20.652173913043477,274.15458015773606 20.652173913043477,274.15458015773606 Q20.652173913043477,274.15458015773606 20.652173913043477,274.15458015773606 Q20.652173913043477,274.15458015773606 21.195652173913043,274.15458015773606 Q21.73913043478261,274.15458015773606 22.282608695652172,274.15458015773606 Q22.82608695652174,274.15458015773606 23.369565217391305,273.6111018968665 Q23.913043478260867,273.06762363599694 23.913043478260867,273.06762363599694 Q23.913043478260867,273.06762363599694 24.456521739130434,272.5241453751274 Q25,271.9806671142578 25.543478260869563,271.9806671142578 Q26.08695652173913,271.9806671142578 26.08695652173913,271.43718885338825 Q26.08695652173913,270.8937105925187 26.630434782608695,270.3502323316491 Q27.173913043478258,269.80675407077956 27.173913043478258,269.26327580991 Q27.173913043478258,268.71979754904044 27.717391304347824,267.6328410273013 Q28.26086956521739,266.5458845055621 28.804347826086953,266.5458845055621 Q29.34782608695652,266.5458845055621 29.891304347826086,264.91544972295344 Q30.434782608695652,263.28501494034475 30.434782608695652,262.7415366794752 Q30.434782608695652,262.1980584186056 30.97826086956522,260.0241453751274 Q31.52173913043478,257.8502323316491 31.52173913043478,257.30675407077956 Q31.52173913043478,256.76327580991 32.60869565217391,254.58936276643172 Q33.69565217391304,252.41544972295344 33.69565217391304,250.78501494034475 Q33.69565217391304,249.15458015773606 34.23913043478261,245.8937105925187 Q34.78260869565217,242.63284102730128 34.78260869565217,242.08936276643172 Q34.78260869565217,241.54588450556216 34.78260869565217,240.458927983823 Q34.78260869565217,239.37197146208388 34.78260869565217,238.82849320121431 Q34.78260869565217,238.28501494034475 34.78260869565217,237.7415366794752 Q34.78260869565217,237.19805841860563 34.78260869565217,236.65458015773606 Q34.78260869565217,236.1111018968665 34.78260869565217,235.56762363599694 Q34.78260869565217,235.02414537512738 34.78260869565217,233.3937105925187 Q34.78260869565217,231.76327580990997 34.78260869565217,229.58936276643172 Q34.78260869565217,227.41544972295347 34.78260869565217,226.87197146208388 Q34.78260869565217,226.32849320121431 34.78260869565217,225.2415366794752 Q34.78260869565217,224.15458015773606 34.78260869565217,223.6111018968665 Q34.78260869565217,223.06762363599694 34.78260869565217,222.52414537512738 Q34.78260869565217,221.9806671142578 34.78260869565217,221.9806671142578 Q34.78260869565217,221.9806671142578 34.78260869565217,221.43718885338825 Q34.78260869565217,220.89371059251866 34.78260869565217,220.89371059251866 Q34.78260869565217,220.89371059251866 34.78260869565217,220.89371059251866 Q34.78260869565217,220.89371059251866 34.78260869565217,220.3502323316491 Q34.78260869565217,219.80675407077953 34.78260869565217,219.80675407077953 Q34.78260869565217,219.80675407077953 34.78260869565217,218.7197975490404 Q34.78260869565217,217.63284102730128 34.78260869565217,217.63284102730128 Q34.78260869565217,217.63284102730128 34.78260869565217,216.54588450556216 Q34.78260869565217,215.45892798382303 34.78260869565217,216.0024062446926 Q34.78260869565217,216.54588450556216 34.78260869565217,217.63284102730128 Q34.78260869565217,218.7197975490404 34.78260869565217,219.80675407077953 Q34.78260869565217,220.89371059251866 35.326086956521735,222.52414537512738 Q35.869565217391305,224.15458015773606 36.41304347826087,228.50240624469257 Q36.95652173913043,232.8502323316491 36.95652173913043,236.1111018968665 Q36.95652173913043,239.37197146208388 37.5,243.17631928817084 Q38.04347826086956,246.9806671142578 38.586956521739125,250.78501494034475 Q39.130434782608695,254.58936276643172 39.130434782608695,260.0241453751274 Q39.130434782608695,265.458927983823 39.130434782608695,268.71979754904044 Q39.130434782608695,271.9806671142578 39.130434782608695,273.6111018968665 Q39.130434782608695,275.2415366794752 39.130434782608695,275.78501494034475 Q39.130434782608695,276.3284932012143 39.130434782608695,276.8719714620839 Q39.130434782608695,277.41544972295344 39.130434782608695,277.958927983823 Q39.130434782608695,278.50240624469257 39.130434782608695,279.0458845055621 Q39.130434782608695,279.5893627664317 39.130434782608695,280.13284102730125 Q39.130434782608695,280.6763192881708 39.130434782608695,281.21979754904044 Q39.130434782608695,281.76327580991 39.130434782608695,281.76327580991 L39.130434782608695,281.76327580991" stroke="#00ffbf" stroke-width="8" fill="none"/><path d="M55.43478260869565,214.37197146208388 Q55.43478260869565,215.45892798382303 55.43478260869565,216.0024062446926 Q55.43478260869565,216.54588450556216 55.43478260869565,217.63284102730128 Q55.43478260869565,218.7197975490404 55.43478260869565,220.8937105925187 Q55.43478260869565,223.06762363599694 55.43478260869565,226.87197146208388 Q55.43478260869565,230.67631928817084 55.43478260869565,235.02414537512738 Q55.43478260869565,239.37197146208388 55.43478260869565,240.458927983823 Q55.43478260869565,241.54588450556216 55.43478260869565,243.17631928817084 Q55.43478260869565,244.80675407077953 55.43478260869565,245.8937105925187 Q55.43478260869565,246.9806671142578 55.43478260869565,249.69805841860563 Q55.43478260869565,252.41544972295344 55.43478260869565,252.958927983823 Q55.43478260869565,253.5024062446926 55.43478260869565,254.04588450556216 Q55.43478260869565,254.58936276643172 55.43478260869565,255.13284102730128 Q55.43478260869565,255.67631928817084 55.43478260869565,256.21979754904044 Q55.43478260869565,256.76327580991 55.43478260869565,257.8502323316491 Q55.43478260869565,258.93718885338825 55.43478260869565,259.4806671142578 Q55.43478260869565,260.0241453751274 55.43478260869565,260.0241453751274 Q55.43478260869565,260.0241453751274 55.43478260869565,260.56762363599694 Q55.43478260869565,261.1111018968665 55.43478260869565,261.65458015773606 Q55.43478260869565,262.1980584186056 55.43478260869565,262.1980584186056 Q55.43478260869565,262.1980584186056 55.43478260869565,262.7415366794752 Q55.43478260869565,263.28501494034475 55.43478260869565,263.8284932012143 Q55.43478260869565,264.3719714620839 55.97826086956522,265.458927983823 Q56.52173913043478,266.5458845055621 56.52173913043478,267.0893627664317 Q56.52173913043478,267.63284102730125 56.52173913043478,267.63284102730125 Q56.52173913043478,267.63284102730125 56.52173913043478,268.1763192881708 Q56.52173913043478,268.71979754904044 57.065217391304344,269.26327580991 Q57.608695652173914,269.80675407077956 57.608695652173914,270.3502323316491 Q57.608695652173914,270.8937105925187 57.608695652173914,271.43718885338825 Q57.608695652173914,271.9806671142578 57.608695652173914,271.9806671142578 Q57.608695652173914,271.9806671142578 57.608695652173914,272.5241453751274 Q57.608695652173914,273.06762363599694 57.608695652173914,273.6111018968665 Q57.608695652173914,274.15458015773606 57.608695652173914,274.15458015773606 Q57.608695652173914,274.15458015773606 57.608695652173914,274.15458015773606 Q57.608695652173914,274.15458015773606 57.608695652173914,274.6980584186056 Q57.608695652173914,275.2415366794752 57.608695652173914,275.2415366794752 Q57.608695652173914,275.2415366794752 57.608695652173914,274.15458015773606 Q57.608695652173914,273.06762363599694 57.608695652173914,273.06762363599694 Q57.608695652173914,273.06762363599694 57.065217391304344,272.5241453751274 Q56.52173913043478,271.9806671142578 56.52173913043478,270.8937105925187 Q56.52173913043478,269.80675407077956 56.52173913043478,267.0893627664317 Q56.52173913043478,264.3719714620839 56.52173913043478,262.7415366794752 Q56.52173913043478,261.1111018968665 56.52173913043478,260.0241453751274 Q56.52173913043478,258.93718885338825 56.52173913043478,258.3937105925187 Q56.52173913043478,257.8502323316491 56.52173913043478,257.30675407077956 Q56.52173913043478,256.76327580991 56.52173913043478,255.1328410273013 Q56.52173913043478,253.5024062446926 56.52173913043478,252.958927983823 Q56.52173913043478,252.41544972295344 56.52173913043478,251.87197146208388 Q56.52173913043478,251.32849320121431 56.52173913043478,250.2415366794752 Q56.52173913043478,249.15458015773606 56.52173913043478,248.6111018968665 Q56.52173913043478,248.06762363599694 56.52173913043478,247.52414537512738 Q56.52173913043478,246.9806671142578 56.52173913043478,246.43718885338825 Q56.52173913043478,245.89371059251866 56.52173913043478,245.3502323316491 Q56.52173913043478,244.80675407077953 56.52173913043478,244.26327580990997 Q56.52173913043478,243.7197975490404 57.065217391304344,243.17631928817084 Q57.608695652173914,242.63284102730128 57.608695652173914,242.08936276643172 Q57.608695652173914,241.54588450556216 57.608695652173914,241.0024062446926 Q57.608695652173914,240.45892798382303 57.608695652173914,239.37197146208388 Q57.608695652173914,238.28501494034475 58.15217391304348,237.7415366794752 Q58.69565217391304,237.19805841860563 58.69565217391304,236.65458015773606 Q58.69565217391304,236.1111018968665 59.23913043478261,235.56762363599694 Q59.78260869565217,235.02414537512738 60.326086956521735,234.4806671142578 Q60.869565217391305,233.93718885338825 60.869565217391305,233.93718885338825 Q60.869565217391305,233.93718885338825 61.41304347826087,232.30675407077956 Q61.95652173913043,230.67631928817084 61.95652173913043,230.13284102730128 Q61.95652173913043,229.58936276643172 62.5,229.04588450556216 Q63.04347826086956,228.5024062446926 63.04347826086956,228.5024062446926 Q63.04347826086956,228.5024062446926 63.586956521739125,227.95892798382303 Q64.13043478260869,227.41544972295347 64.13043478260869,226.87197146208388 Q64.13043478260869,226.32849320121431 64.67391304347825,225.78501494034475 Q65.21739130434783,225.2415366794752 65.21739130434783,225.2415366794752 Q65.21739130434783,225.2415366794752 65.21739130434783,225.2415366794752 Q65.21739130434783,225.2415366794752 65.76086956521739,224.69805841860563 Q66.30434782608695,224.15458015773606 66.30434782608695,223.6111018968665 Q66.30434782608695,223.06762363599694 66.84782608695652,222.52414537512738 Q67.39130434782608,221.9806671142578 67.39130434782608,221.9806671142578 Q67.39130434782608,221.9806671142578 67.93478260869566,221.43718885338825 Q68.47826086956522,220.89371059251866 68.47826086956522,220.3502323316491 Q68.47826086956522,219.80675407077953 69.02173913043478,219.26327580990997 Q69.56521739130434,218.7197975490404 70.1086956521739,218.17631928817084 Q70.65217391304347,217.63284102730128 70.65217391304347,217.63284102730128 Q70.65217391304347,217.63284102730128 71.19565217391303,217.08936276643172 Q71.73913043478261,216.54588450556216 72.28260869565217,216.54588450556216 Q72.82608695652173,216.54588450556216 72.82608695652173,216.0024062446926 Q72.82608695652173,215.45892798382303 73.3695652173913,215.45892798382303 Q73.91304347826086,215.45892798382303 74.45652173913044,214.91544972295344 Q75,214.37197146208388 75.54347826086956,214.37197146208388 Q76.08695652173913,214.37197146208388 76.08695652173913,214.37197146208388 Q76.08695652173913,214.37197146208388 76.63043478260869,214.37197146208388 Q77.17391304347825,214.37197146208388 77.71739130434781,214.37197146208388 Q78.26086956521739,214.37197146208388 78.80434782608695,214.37197146208388 Q79.34782608695652,214.37197146208388 79.89130434782608,214.37197146208388 Q80.43478260869564,214.37197146208388 81.52173913043478,214.37197146208388 Q82.6086956521739,214.37197146208388 82.6086956521739,214.37197146208388 Q82.6086956521739,214.37197146208388 83.15217391304347,214.37197146208388 Q83.69565217391305,214.37197146208388 83.69565217391305,214.37197146208388 Q83.69565217391305,214.37197146208388 84.23913043478261,214.37197146208388 Q84.78260869565217,214.37197146208388 85.32608695652173,214.37197146208388 Q85.8695652173913,214.37197146208388 85.8695652173913,214.37197146208388 Q85.8695652173913,214.37197146208388 86.41304347826087,214.91544972295344 Q86.95652173913044,215.45892798382303 87.5,216.0024062446926 Q88.04347826086956,216.54588450556216 88.04347826086956,216.54588450556216 Q88.04347826086956,216.54588450556216 88.04347826086956,217.08936276643172 Q88.04347826086956,217.63284102730128 88.58695652173913,218.7197975490404 Q89.13043478260869,219.80675407077953 89.13043478260869,220.3502323316491 Q89.13043478260869,220.89371059251866 89.13043478260869,221.43718885338825 Q89.13043478260869,221.9806671142578 89.13043478260869,221.9806671142578 Q89.13043478260869,221.9806671142578 89.13043478260869,223.06762363599694 Q89.13043478260869,224.15458015773606 89.13043478260869,225.2415366794752 Q89.13043478260869,226.32849320121431 89.13043478260869,226.87197146208388 Q89.13043478260869,227.41544972295347 89.13043478260869,228.5024062446926 Q89.13043478260869,229.58936276643172 89.13043478260869,230.13284102730128 Q89.13043478260869,230.67631928817084 89.13043478260869,231.76327580990997 Q89.13043478260869,232.8502323316491 89.13043478260869,233.3937105925187 Q89.13043478260869,233.93718885338825 89.13043478260869,235.02414537512738 Q89.13043478260869,236.1111018968665 89.13043478260869,237.19805841860563 Q89.13043478260869,238.28501494034475 89.13043478260869,238.82849320121431 Q89.13043478260869,239.37197146208388 88.58695652173913,240.458927983823 Q88.04347826086956,241.54588450556216 88.04347826086956,242.08936276643172 Q88.04347826086956,242.63284102730128 88.04347826086956,243.7197975490404 Q88.04347826086956,244.80675407077953 88.04347826086956,244.80675407077953 Q88.04347826086956,244.80675407077953 88.04347826086956,245.8937105925187 Q88.04347826086956,246.9806671142578 88.04347826086956,248.6111018968665 Q88.04347826086956,250.2415366794752 88.04347826086956,250.78501494034475 Q88.04347826086956,251.32849320121431 88.04347826086956,252.41544972295344 Q88.04347826086956,253.5024062446926 88.04347826086956,255.67631928817087 Q88.04347826086956,257.8502323316491 87.5,260.56762363599694 Q86.95652173913044,263.28501494034475 86.95652173913044,263.8284932012143 Q86.95652173913044,264.3719714620839 86.95652173913044,264.91544972295344 Q86.95652173913044,265.458927983823 86.41304347826087,266.00240624469257 Q85.8695652173913,266.5458845055621 85.8695652173913,267.0893627664317 Q85.8695652173913,267.63284102730125 85.8695652173913,267.63284102730125 Q85.8695652173913,267.63284102730125 85.8695652173913,268.1763192881708 Q85.8695652173913,268.71979754904044 85.8695652173913,268.71979754904044 Q85.8695652173913,268.71979754904044 85.8695652173913,270.3502323316491 Q85.8695652173913,271.9806671142578 85.8695652173913,272.5241453751274 Q85.8695652173913,273.06762363599694 85.8695652173913,273.06762363599694 Q85.8695652173913,273.06762363599694 85.8695652173913,273.6111018968665 Q85.8695652173913,274.15458015773606 85.8695652173913,274.15458015773606 L85.8695652173913,274.15458015773606" stroke="#00ffbf" stroke-width="8" fill="none"/><path d="M132.6086956521739,171.9806671142578 Q133.69565217391303,174.15458015773606 133.69565217391303,175.78501494034475 Q133.69565217391303,177.41544972295347 133.69565217391303,180.13284102730128 Q133.69565217391303,182.8502323316491 133.69565217391303,185.56762363599694 Q133.69565217391303,188.28501494034475 133.69565217391303,191.00240624469257 Q133.69565217391303,193.7197975490404 133.69565217391303,197.52414537512738 Q133.69565217391303,201.32849320121431 133.69565217391303,202.41544972295344 Q133.69565217391303,203.5024062446926 133.69565217391303,204.04588450556216 Q133.69565217391303,204.58936276643172 133.69565217391303,205.13284102730128 Q133.69565217391303,205.67631928817084 133.69565217391303,206.2197975490404 Q133.69565217391303,206.76327580990997 133.69565217391303,207.85023233164912 Q133.69565217391303,208.93718885338825 134.2391304347826,209.4806671142578 Q134.78260869565216,210.02414537512738 134.78260869565216,210.56762363599694 Q134.78260869565216,211.1111018968665 134.78260869565216,211.65458015773606 Q134.78260869565216,212.19805841860563 134.78260869565216,212.7415366794752 Q134.78260869565216,213.28501494034475 134.78260869565216,213.82849320121431 Q134.78260869565216,214.37197146208388 134.78260869565216,217.0893627664317 Q134.78260869565216,219.80675407077953 134.78260869565216,222.52414537512738 Q134.78260869565216,225.2415366794752 134.78260869565216,227.41544972295344 Q134.78260869565216,229.58936276643172 134.78260869565216,232.30675407077956 Q134.78260869565216,235.02414537512738 134.78260869565216,235.56762363599694 Q134.78260869565216,236.1111018968665 134.78260869565216,237.7415366794752 Q134.78260869565216,239.37197146208388 134.78260869565216,239.37197146208388 Q134.78260869565216,239.37197146208388 134.78260869565216,239.91544972295344 Q134.78260869565216,240.45892798382303 134.78260869565216,241.54588450556216 Q134.78260869565216,242.63284102730128 134.78260869565216,243.7197975490404 Q134.78260869565216,244.80675407077953 134.78260869565216,245.3502323316491 Q134.78260869565216,245.89371059251866 135.32608695652175,246.9806671142578 Q135.8695652173913,248.06762363599694 135.8695652173913,249.15458015773606 Q135.8695652173913,250.2415366794752 135.8695652173913,250.78501494034475 Q135.8695652173913,251.32849320121431 135.8695652173913,252.41544972295344 Q135.8695652173913,253.5024062446926 135.8695652173913,254.04588450556216 Q135.8695652173913,254.58936276643172 135.8695652173913,255.67631928817087 Q135.8695652173913,256.76327580991 135.8695652173913,257.30675407077956 Q135.8695652173913,257.8502323316491 135.8695652173913,258.3937105925187 Q135.8695652173913,258.93718885338825 135.8695652173913,258.93718885338825 Q135.8695652173913,258.93718885338825 135.8695652173913,258.93718885338825 Q135.8695652173913,258.93718885338825 135.8695652173913,259.4806671142578 Q135.8695652173913,260.0241453751274 135.8695652173913,260.56762363599694 Q135.8695652173913,261.1111018968665 135.8695652173913,261.1111018968665 Q135.8695652173913,261.1111018968665 135.8695652173913,261.65458015773606 Q135.8695652173913,262.1980584186056 135.8695652173913,262.7415366794752 Q135.8695652173913,263.28501494034475 135.8695652173913,263.28501494034475 Q135.8695652173913,263.28501494034475 135.8695652173913,263.28501494034475 Q135.8695652173913,263.28501494034475 135.8695652173913,263.8284932012143 Q135.8695652173913,264.3719714620839 135.8695652173913,264.3719714620839 Q135.8695652173913,264.3719714620839 135.8695652173913,264.91544972295344 Q135.8695652173913,265.458927983823 135.8695652173913,265.458927983823 L135.8695652173913,265.458927983823" stroke="#00ffbf" stroke-width="8" fill="none"/><path d="M130.43478260869566,217.63284102730128 Q130.43478260869566,217.63284102730128 130.43478260869566,217.63284102730128 Q130.43478260869566,217.63284102730128 129.89130434782606,217.63284102730128 Q129.3478260869565,217.63284102730128 129.3478260869565,217.63284102730128 Q129.3478260869565,217.63284102730128 129.3478260869565,217.63284102730128 Q129.3478260869565,217.63284102730128 128.80434782608694,217.63284102730128 Q128.26086956521738,217.63284102730128 127.71739130434781,217.63284102730128 Q127.17391304347825,217.63284102730128 127.17391304347825,217.63284102730128 Q127.17391304347825,217.63284102730128 126.63043478260869,217.63284102730128 Q126.08695652173913,217.63284102730128 126.08695652173913,217.63284102730128 Q126.08695652173913,217.63284102730128 125.54347826086956,217.63284102730128 Q125,217.63284102730128 125,217.63284102730128 Q125,217.63284102730128 124.45652173913044,217.63284102730128 Q123.91304347826086,217.63284102730128 123.91304347826086,217.63284102730128 Q123.91304347826086,217.63284102730128 122.28260869565216,218.17631928817084 Q120.65217391304347,218.7197975490404 120.65217391304347,218.7197975490404 Q120.65217391304347,218.7197975490404 119.56521739130434,219.26327580990997 Q118.47826086956522,219.80675407077953 117.93478260869566,219.80675407077953 Q117.39130434782608,219.80675407077953 116.84782608695652,220.8937105925187 Q116.30434782608695,221.9806671142578 116.30434782608695,221.9806671142578 Q116.30434782608695,221.9806671142578 115.76086956521739,222.52414537512738 Q115.21739130434783,223.06762363599694 115.21739130434783,223.6111018968665 Q115.21739130434783,224.15458015773606 114.67391304347825,224.15458015773606 Q114.13043478260869,224.15458015773606 114.13043478260869,224.69805841860563 Q114.13043478260869,225.2415366794752 113.58695652173913,225.2415366794752 Q113.04347826086956,225.2415366794752 113.04347826086956,225.78501494034475 Q113.04347826086956,226.32849320121431 113.04347826086956,226.32849320121431 Q113.04347826086956,226.32849320121431 112.5,226.87197146208388 Q111.95652173913042,227.41544972295347 111.41304347826086,227.95892798382303 Q110.8695652173913,228.5024062446926 110.8695652173913,228.5024062446926 Q110.8695652173913,228.5024062446926 110.8695652173913,229.04588450556216 Q110.8695652173913,229.58936276643172 109.78260869565216,230.13284102730128 Q108.69565217391303,230.67631928817084 108.69565217391303,230.67631928817084 Q108.69565217391303,230.67631928817084 108.15217391304347,231.2197975490404 Q107.6086956521739,231.76327580990997 107.6086956521739,232.30675407077953 Q107.6086956521739,232.8502323316491 107.06521739130434,233.3937105925187 Q106.52173913043478,233.93718885338825 106.52173913043478,233.93718885338825 Q106.52173913043478,233.93718885338825 105.97826086956522,234.4806671142578 Q105.43478260869564,235.02414537512738 105.43478260869564,235.02414537512738 Q105.43478260869564,235.02414537512738 105.43478260869564,235.56762363599694 Q105.43478260869564,236.1111018968665 105.43478260869564,236.1111018968665 Q105.43478260869564,236.1111018968665 104.89130434782608,236.65458015773606 Q104.34782608695652,237.19805841860563 104.34782608695652,237.7415366794752 Q104.34782608695652,238.28501494034475 104.34782608695652,238.82849320121431 Q104.34782608695652,239.37197146208388 103.80434782608695,239.91544972295344 Q103.26086956521739,240.45892798382303 103.26086956521739,241.0024062446926 Q103.26086956521739,241.54588450556216 103.26086956521739,241.54588450556216 Q103.26086956521739,241.54588450556216 103.26086956521739,242.08936276643172 Q103.26086956521739,242.63284102730128 103.26086956521739,242.63284102730128 Q103.26086956521739,242.63284102730128 102.71739130434781,243.17631928817084 Q102.17391304347825,243.7197975490404 102.17391304347825,244.26327580990997 Q102.17391304347825,244.80675407077953 102.17391304347825,244.80675407077953 Q102.17391304347825,244.80675407077953 102.17391304347825,245.3502323316491 Q102.17391304347825,245.89371059251866 102.17391304347825,245.89371059251866 Q102.17391304347825,245.89371059251866 102.17391304347825,246.43718885338825 Q102.17391304347825,246.9806671142578 102.71739130434781,247.52414537512738 Q103.26086956521739,248.06762363599694 103.80434782608695,248.6111018968665 Q104.34782608695652,249.15458015773606 104.34782608695652,249.15458015773606 Q104.34782608695652,249.15458015773606 104.89130434782608,249.69805841860563 Q105.43478260869564,250.2415366794752 105.43478260869564,250.2415366794752 Q105.43478260869564,250.2415366794752 105.97826086956522,250.78501494034475 Q106.52173913043478,251.32849320121431 107.06521739130434,251.87197146208388 Q107.6086956521739,252.41544972295344 107.6086956521739,252.41544972295344 Q107.6086956521739,252.41544972295344 108.15217391304347,252.958927983823 Q108.69565217391303,253.5024062446926 109.2391304347826,253.5024062446926 Q109.78260869565217,253.5024062446926 109.78260869565217,254.04588450556216 Q109.78260869565217,254.58936276643172 110.32608695652173,255.13284102730128 Q110.8695652173913,255.67631928817084 111.41304347826086,256.21979754904044 Q111.95652173913042,256.76327580991 111.95652173913042,256.76327580991 Q111.95652173913042,256.76327580991 112.5,257.30675407077956 Q113.04347826086956,257.8502323316491 113.04347826086956,257.8502323316491 Q113.04347826086956,257.8502323316491 113.58695652173913,258.3937105925187 Q114.13043478260869,258.93718885338825 114.13043478260869,258.93718885338825 Q114.13043478260869,258.93718885338825 114.67391304347825,259.4806671142578 Q115.21739130434783,260.0241453751274 115.21739130434783,260.0241453751274 Q115.21739130434783,260.0241453751274 115.76086956521739,260.0241453751274 Q116.30434782608695,260.0241453751274 116.30434782608695,260.56762363599694 Q116.30434782608695,261.1111018968665 116.84782608695652,261.1111018968665 Q117.39130434782608,261.1111018968665 117.39130434782608,261.65458015773606 Q117.39130434782608,262.1980584186056 117.93478260869566,262.1980584186056 Q118.47826086956522,262.1980584186056 118.47826086956522,262.1980584186056 Q118.47826086956522,262.1980584186056 119.02173913043478,262.1980584186056 Q119.56521739130434,262.1980584186056 120.1086956521739,262.7415366794752 Q120.65217391304347,263.28501494034475 121.19565217391303,263.28501494034475 Q121.73913043478261,263.28501494034475 121.73913043478261,263.28501494034475 Q121.73913043478261,263.28501494034475 122.82608695652173,263.8284932012143 Q123.91304347826086,264.3719714620839 124.45652173913044,264.3719714620839 Q125,264.3719714620839 125.54347826086956,264.91544972295344 Q126.08695652173913,265.458927983823 126.08695652173913,265.458927983823 Q126.08695652173913,265.458927983823 126.63043478260869,265.458927983823 Q127.17391304347825,265.458927983823 127.71739130434781,265.458927983823 Q128.26086956521738,265.458927983823 128.80434782608694,265.458927983823 Q129.3478260869565,265.458927983823 129.3478260869565,265.458927983823 Q129.3478260869565,265.458927983823 129.3478260869565,265.458927983823 Q129.3478260869565,265.458927983823 129.89130434782606,265.458927983823 Q130.43478260869566,265.458927983823 130.43478260869566,265.458927983823 Q130.43478260869566,265.458927983823 130.97826086956522,265.458927983823 Q131.52173913043478,265.458927983823 131.52173913043478,265.458927983823 Q131.52173913043478,265.458927983823 131.52173913043478,265.458927983823 Q131.52173913043478,265.458927983823 132.06521739130434,265.458927983823 Q132.6086956521739,265.458927983823 132.6086956521739,265.458927983823 Q132.6086956521739,265.458927983823 133.15217391304347,265.458927983823 Q133.69565217391303,265.458927983823 133.69565217391303,265.458927983823 L133.69565217391303,265.458927983823" stroke="#00ffbf" stroke-width="8" fill="none"/><path d="M155.43478260869566,232.8502323316491 Q155.43478260869566,232.8502323316491 155.43478260869566,232.8502323316491 Q155.43478260869566,232.8502323316491 155.97826086956522,232.8502323316491 Q156.52173913043478,232.8502323316491 157.06521739130434,232.8502323316491 Q157.6086956521739,232.8502323316491 158.15217391304347,232.8502323316491 Q158.69565217391303,232.8502323316491 159.2391304347826,232.30675407077953 Q159.78260869565216,231.76327580990997 160.8695652173913,231.2197975490404 Q161.95652173913044,230.67631928817084 162.5,230.13284102730128 Q163.04347826086956,229.58936276643172 163.58695652173913,229.04588450556216 Q164.1304347826087,228.5024062446926 164.1304347826087,228.5024062446926 Q164.1304347826087,228.5024062446926 164.67391304347825,228.5024062446926 Q165.2173913043478,228.5024062446926 165.2173913043478,227.95892798382303 Q165.2173913043478,227.41544972295347 165.76086956521738,226.87197146208388 Q166.30434782608694,226.32849320121431 166.8478260869565,226.32849320121431 Q167.3913043478261,226.32849320121431 167.93478260869566,225.78501494034475 Q168.47826086956522,225.2415366794752 168.47826086956522,225.2415366794752 Q168.47826086956522,225.2415366794752 169.02173913043478,225.2415366794752 Q169.56521739130434,225.2415366794752 170.1086956521739,224.15458015773606 Q170.65217391304347,223.06762363599694 170.65217391304347,223.06762363599694 Q170.65217391304347,223.06762363599694 171.7391304347826,223.06762363599694 Q172.82608695652172,223.06762363599694 172.82608695652172,222.52414537512738 Q172.82608695652172,221.9806671142578 173.3695652173913,221.43718885338825 Q173.91304347826087,220.89371059251866 174.45652173913044,220.89371059251866 Q175,220.89371059251866 175,220.89371059251866 Q175,220.89371059251866 175.54347826086956,220.3502323316491 Q176.08695652173913,219.80675407077953 176.6304347826087,218.7197975490404 Q177.17391304347825,217.63284102730128 177.7173913043478,217.08936276643172 Q178.26086956521738,216.54588450556216 178.26086956521738,215.458927983823 Q178.26086956521738,214.37197146208388 178.26086956521738,214.37197146208388 Q178.26086956521738,214.37197146208388 178.26086956521738,213.82849320121431 Q178.26086956521738,213.28501494034475 178.26086956521738,212.7415366794752 Q178.26086956521738,212.19805841860563 178.26086956521738,212.19805841860563 Q178.26086956521738,212.19805841860563 178.26086956521738,211.65458015773606 Q178.26086956521738,211.1111018968665 178.26086956521738,211.1111018968665 Q178.26086956521738,211.1111018968665 178.26086956521738,210.56762363599694 Q178.26086956521738,210.02414537512738 177.7173913043478,210.02414537512738 Q177.17391304347825,210.02414537512738 177.17391304347825,209.4806671142578 Q177.17391304347825,208.93718885338825 176.6304347826087,208.93718885338825 Q176.08695652173913,208.93718885338825 176.08695652173913,208.93718885338825 Q176.08695652173913,208.93718885338825 175.54347826086956,208.93718885338825 Q175,208.93718885338825 175,208.93718885338825 Q175,208.93718885338825 174.45652173913044,208.93718885338825 Q173.91304347826087,208.93718885338825 173.91304347826087,208.93718885338825 Q173.91304347826087,208.93718885338825 173.3695652173913,208.3937105925187 Q172.82608695652172,207.8502323316491 172.28260869565216,207.8502323316491 Q171.7391304347826,207.8502323316491 171.7391304347826,207.8502323316491 Q171.7391304347826,207.8502323316491 170.65217391304347,207.30675407077953 Q169.56521739130434,206.76327580990997 169.02173913043478,206.76327580990997 Q168.47826086956522,206.76327580990997 168.47826086956522,206.76327580990997 Q168.47826086956522,206.76327580990997 167.93478260869566,206.76327580990997 Q167.3913043478261,206.76327580990997 166.8478260869565,206.76327580990997 Q166.30434782608694,206.76327580990997 166.30434782608694,206.76327580990997 Q166.30434782608694,206.76327580990997 165.76086956521738,206.76327580990997 Q165.2173913043478,206.76327580990997 164.67391304347825,206.76327580990997 Q164.1304347826087,206.76327580990997 163.04347826086956,206.76327580990997 Q161.95652173913044,206.76327580990997 161.41304347826087,206.76327580990997 Q160.86956521739128,206.76327580990997 160.32608695652172,207.30675407077953 Q159.78260869565216,207.8502323316491 159.2391304347826,207.8502323316491 Q158.69565217391303,207.8502323316491 158.15217391304347,208.3937105925187 Q157.6086956521739,208.93718885338825 157.6086956521739,209.4806671142578 Q157.6086956521739,210.02414537512738 157.06521739130434,210.02414537512738 Q156.52173913043478,210.02414537512738 156.52173913043478,210.02414537512738 Q156.52173913043478,210.02414537512738 156.52173913043478,210.02414537512738 Q156.52173913043478,210.02414537512738 156.52173913043478,210.56762363599694 Q156.52173913043478,211.1111018968665 155.97826086956522,211.65458015773606 Q155.43478260869566,212.19805841860563 155.43478260869566,212.19805841860563 Q155.43478260869566,212.19805841860563 155.43478260869566,212.19805841860563 Q155.43478260869566,212.19805841860563 155.43478260869566,212.7415366794752 Q155.43478260869566,213.28501494034475 155.43478260869566,214.37197146208388 Q155.43478260869566,215.45892798382303 154.89130434782606,216.0024062446926 Q154.3478260869565,216.54588450556216 154.3478260869565,217.08936276643172 Q154.3478260869565,217.63284102730128 154.3478260869565,218.17631928817084 Q154.3478260869565,218.7197975490404 154.3478260869565,219.26327580990997 Q154.3478260869565,219.80675407077953 154.3478260869565,220.3502323316491 Q154.3478260869565,220.89371059251866 154.3478260869565,220.89371059251866 Q154.3478260869565,220.89371059251866 154.3478260869565,221.9806671142578 Q154.3478260869565,223.06762363599694 153.80434782608694,223.6111018968665 Q153.26086956521738,224.15458015773606 153.26086956521738,225.2415366794752 Q153.26086956521738,226.32849320121431 153.26086956521738,226.87197146208388 Q153.26086956521738,227.41544972295347 153.26086956521738,227.95892798382303 Q153.26086956521738,228.5024062446926 153.26086956521738,229.04588450556216 Q153.26086956521738,229.58936276643172 153.26086956521738,230.13284102730128 Q153.26086956521738,230.67631928817084 153.26086956521738,231.2197975490404 Q153.26086956521738,231.76327580990997 153.26086956521738,232.30675407077953 Q153.26086956521738,232.8502323316491 153.26086956521738,233.93718885338825 Q153.26086956521738,235.02414537512738 153.26086956521738,235.56762363599694 Q153.26086956521738,236.1111018968665 153.26086956521738,236.65458015773606 Q153.26086956521738,237.19805841860563 153.26086956521738,237.19805841860563 Q153.26086956521738,237.19805841860563 153.80434782608694,237.7415366794752 Q154.3478260869565,238.28501494034475 154.3478260869565,238.28501494034475 Q154.3478260869565,238.28501494034475 154.89130434782606,238.82849320121431 Q155.43478260869566,239.37197146208388 155.43478260869566,239.91544972295344 Q155.43478260869566,240.45892798382303 155.97826086956522,240.45892798382303 Q156.52173913043478,240.45892798382303 156.52173913043478,241.0024062446926 Q156.52173913043478,241.54588450556216 157.06521739130434,242.08936276643172 Q157.6086956521739,242.63284102730128 158.15217391304347,243.17631928817084 Q158.69565217391303,243.7197975490404 158.69565217391303,243.7197975490404 Q158.69565217391303,243.7197975490404 158.69565217391303,244.26327580990997 Q158.69565217391303,244.80675407077953 159.2391304347826,244.80675407077953 Q159.78260869565216,244.80675407077953 159.78260869565216,245.3502323316491 Q159.78260869565216,245.89371059251866 160.32608695652172,245.89371059251866 Q160.86956521739128,245.89371059251866 160.86956521739128,246.43718885338825 Q160.86956521739128,246.9806671142578 161.41304347826087,246.9806671142578 Q161.95652173913044,246.9806671142578 162.5,247.52414537512738 Q163.04347826086956,248.06762363599694 163.04347826086956,248.06762363599694 Q163.04347826086956,248.06762363599694 163.58695652173913,248.06762363599694 Q164.1304347826087,248.06762363599694 164.67391304347825,248.6111018968665 Q165.2173913043478,249.15458015773606 165.76086956521738,249.15458015773606 Q166.30434782608694,249.15458015773606 166.8478260869565,249.15458015773606 Q167.3913043478261,249.15458015773606 167.3913043478261,249.15458015773606 Q167.3913043478261,249.15458015773606 168.47826086956522,249.15458015773606 Q169.56521739130434,249.15458015773606 170.1086956521739,249.69805841860563 Q170.65217391304347,250.2415366794752 171.19565217391303,250.2415366794752 Q171.7391304347826,250.2415366794752 171.7391304347826,250.2415366794752 Q171.7391304347826,250.2415366794752 172.28260869565216,250.2415366794752 Q172.82608695652172,250.2415366794752 172.82608695652172,250.2415366794752 Q172.82608695652172,250.2415366794752 173.3695652173913,250.2415366794752 Q173.91304347826087,250.2415366794752 174.45652173913044,250.2415366794752 Q175,250.2415366794752 176.08695652173913,250.2415366794752 Q177.17391304347825,250.2415366794752 177.17391304347825,250.2415366794752 Q177.17391304347825,250.2415366794752 177.7173913043478,250.2415366794752 Q178.26086956521738,250.2415366794752 178.80434782608694,250.2415366794752 Q179.3478260869565,250.2415366794752 179.89130434782606,250.2415366794752 Q180.43478260869566,250.2415366794752 180.97826086956522,250.2415366794752 Q181.52173913043478,250.2415366794752 182.06521739130434,250.2415366794752 Q182.6086956521739,250.2415366794752 183.15217391304347,250.2415366794752 Q183.69565217391303,250.2415366794752 184.2391304347826,250.2415366794752 Q184.78260869565216,250.2415366794752 184.78260869565216,250.2415366794752 Q184.78260869565216,250.2415366794752 185.32608695652172,250.2415366794752 Q185.86956521739128,250.2415366794752 185.86956521739128,250.2415366794752 Q185.86956521739128,250.2415366794752 186.41304347826087,250.2415366794752 L186.95652173913044,250.2415366794752" stroke="#00ffbf" stroke-width="8" fill="none"/><path d="M204.3478260869565,256.76327580991 Q204.3478260869565,255.67631928817084 204.3478260869565,255.13284102730128 Q204.3478260869565,254.58936276643172 204.3478260869565,252.958927983823 Q204.3478260869565,251.32849320121431 204.3478260869565,247.52414537512738 Q204.3478260869565,243.7197975490404 203.80434782608694,239.91544972295344 Q203.26086956521738,236.1111018968665 203.26086956521738,232.30675407077956 Q203.26086956521738,228.5024062446926 203.26086956521738,225.2415366794752 Q203.26086956521738,221.9806671142578 203.26086956521738,218.71979754904044 Q203.26086956521738,215.45892798382303 203.26086956521738,212.7415366794752 Q203.26086956521738,210.02414537512738 203.26086956521738,209.4806671142578 Q203.26086956521738,208.93718885338825 203.26086956521738,208.3937105925187 Q203.26086956521738,207.8502323316491 203.26086956521738,206.76327580990997 Q203.26086956521738,205.67631928817084 203.26086956521738,205.13284102730128 Q203.26086956521738,204.58936276643172 203.26086956521738,203.5024062446926 Q203.26086956521738,202.41544972295347 202.7173913043478,201.32849320121431 Q202.17391304347825,200.2415366794752 202.17391304347825,197.52414537512738 Q202.17391304347825,194.80675407077953 201.6304347826087,192.0893627664317 Q201.08695652173913,189.37197146208388 200.54347826086956,186.65458015773606 Q200,183.93718885338825 200,182.85023233164912 Q200,181.76327580990997 200,181.2197975490404 Q200,180.67631928817084 200,180.67631928817084 Q200,180.67631928817084 200,180.13284102730128 Q200,179.58936276643172 199.45652173913044,179.04588450556216 Q198.91304347826087,178.5024062446926 198.91304347826087,178.5024062446926 Q198.91304347826087,178.5024062446926 198.91304347826087,177.95892798382303 Q198.91304347826087,177.41544972295347 198.91304347826087,176.32849320121431 Q198.91304347826087,175.2415366794752 198.91304347826087,175.2415366794752 Q198.91304347826087,175.2415366794752 198.91304347826087,174.69805841860563 Q198.91304347826087,174.15458015773606 198.3695652173913,173.6111018968665 Q197.82608695652172,173.06762363599694 197.82608695652172,172.52414537512738 Q197.82608695652172,171.9806671142578 197.82608695652172,171.43718885338825 Q197.82608695652172,170.8937105925187 197.82608695652172,170.35023233164912 Q197.82608695652172,169.80675407077953 197.82608695652172,169.80675407077953 Q197.82608695652172,169.80675407077953 197.82608695652172,169.80675407077953 Q197.82608695652172,169.80675407077953 198.3695652173913,169.80675407077953 Q198.91304347826087,169.80675407077953 198.91304347826087,169.80675407077953 Q198.91304347826087,169.80675407077953 200,169.80675407077953 Q201.08695652173913,169.80675407077953 201.6304347826087,169.80675407077953 Q202.17391304347825,169.80675407077953 202.7173913043478,169.80675407077953 Q203.26086956521738,169.80675407077953 209.2391304347826,169.80675407077953 Q215.2173913043478,169.80675407077953 220.65217391304347,169.80675407077953 Q226.08695652173913,169.80675407077953 229.89130434782606,169.80675407077953 Q233.69565217391303,169.80675407077953 236.41304347826087,169.80675407077953 Q239.1304347826087,169.80675407077953 239.67391304347825,169.80675407077953 Q240.2173913043478,169.80675407077953 240.76086956521738,169.80675407077953 Q241.30434782608694,169.80675407077953 241.30434782608694,169.80675407077953 Q241.30434782608694,169.80675407077953 241.8478260869565,169.80675407077953 Q242.39130434782606,169.80675407077953 243.4782608695652,169.26327580990997 Q244.56521739130434,168.7197975490404 245.1086956521739,168.7197975490404 Q245.65217391304347,168.7197975490404 246.19565217391303,168.7197975490404 Q246.7391304347826,168.7197975490404 247.28260869565216,168.7197975490404 Q247.82608695652172,168.7197975490404 248.36956521739128,168.7197975490404 Q248.91304347826085,168.7197975490404 248.91304347826085,168.7197975490404 Q248.91304347826085,168.7197975490404 248.91304347826085,168.7197975490404 Q248.91304347826085,168.7197975490404 249.45652173913044,168.7197975490404 L250,168.7197975490404" stroke="#00ffbf" stroke-width="8" fill="none"/><path d="M207.6086956521739,221.9806671142578 Q207.6086956521739,221.9806671142578 208.15217391304347,221.9806671142578 Q208.69565217391303,221.9806671142578 209.2391304347826,221.9806671142578 Q209.78260869565216,221.9806671142578 211.95652173913044,221.9806671142578 Q214.1304347826087,221.9806671142578 214.67391304347825,221.9806671142578 Q215.2173913043478,221.9806671142578 217.93478260869563,221.9806671142578 Q220.65217391304347,221.9806671142578 221.7391304347826,221.9806671142578 Q222.82608695652172,221.9806671142578 223.91304347826087,221.9806671142578 Q225,221.9806671142578 225.54347826086956,221.9806671142578 Q226.08695652173913,221.9806671142578 226.6304347826087,221.9806671142578 Q227.17391304347825,221.9806671142578 228.26086956521738,221.9806671142578 Q229.3478260869565,221.9806671142578 229.3478260869565,221.9806671142578 Q229.3478260869565,221.9806671142578 229.89130434782606,221.9806671142578 Q230.43478260869566,221.9806671142578 230.97826086956522,221.9806671142578 Q231.52173913043478,221.9806671142578 232.06521739130434,221.9806671142578 Q232.6086956521739,221.9806671142578 232.6086956521739,221.9806671142578 Q232.6086956521739,221.9806671142578 233.15217391304347,221.9806671142578 Q233.69565217391303,221.9806671142578 233.69565217391303,221.9806671142578 Q233.69565217391303,221.9806671142578 234.2391304347826,221.9806671142578 Q234.78260869565216,221.9806671142578 234.78260869565216,221.9806671142578 Q234.78260869565216,221.9806671142578 235.32608695652172,221.9806671142578 Q235.86956521739128,221.9806671142578 236.95652173913044,221.9806671142578 Q238.04347826086956,221.9806671142578 238.04347826086956,221.9806671142578 Q238.04347826086956,221.9806671142578 238.58695652173913,221.9806671142578 Q239.1304347826087,221.9806671142578 239.67391304347825,221.43718885338825 Q240.2173913043478,220.89371059251866 240.2173913043478,220.89371059251866 Q240.2173913043478,220.89371059251866 240.76086956521738,220.89371059251866 Q241.30434782608694,220.89371059251866 241.8478260869565,220.89371059251866 Q242.39130434782606,220.89371059251866 242.39130434782606,220.89371059251866 Q242.39130434782606,220.89371059251866 242.93478260869563,220.89371059251866 Q243.47826086956522,220.89371059251866 243.47826086956522,220.89371059251866 Q243.47826086956522,220.89371059251866 243.47826086956522,220.89371059251866 Q243.47826086956522,220.89371059251866 243.47826086956522,220.89371059251866 L243.47826086956522,220.89371059251866" stroke="#00ffbf" stroke-width="8" fill="none"/><path d="M265.2173913043478,221.9806671142578 Q265.2173913043478,221.9806671142578 265.2173913043478,223.06762363599694 Q265.2173913043478,224.15458015773606 265.2173913043478,225.2415366794752 Q265.2173913043478,226.32849320121431 265.2173913043478,229.04588450556213 Q265.2173913043478,231.76327580990997 265.2173913043478,231.76327580990997 Q265.2173913043478,231.76327580990997 265.2173913043478,232.85023233164912 Q265.2173913043478,233.93718885338825 265.2173913043478,236.1111018968665 Q265.2173913043478,238.28501494034475 265.7608695652174,240.458927983823 Q266.30434782608694,242.63284102730128 266.8478260869565,245.35023233164912 Q267.39130434782606,248.06762363599694 267.39130434782606,248.06762363599694 Q267.39130434782606,248.06762363599694 267.39130434782606,248.6111018968665 Q267.39130434782606,249.15458015773606 267.39130434782606,249.15458015773606 Q267.39130434782606,249.15458015773606 267.39130434782606,250.2415366794752 Q267.39130434782606,251.32849320121431 267.39130434782606,251.32849320121431 Q267.39130434782606,251.32849320121431 267.39130434782606,251.87197146208388 Q267.39130434782606,252.41544972295344 267.39130434782606,252.958927983823 Q267.39130434782606,253.5024062446926 267.39130434782606,254.04588450556216 Q267.39130434782606,254.58936276643172 267.39130434782606,254.58936276643172 Q267.39130434782606,254.58936276643172 267.39130434782606,254.58936276643172 Q267.39130434782606,254.58936276643172 267.39130434782606,255.13284102730128 Q267.39130434782606,255.67631928817084 267.9347826086956,256.21979754904044 Q268.4782608695652,256.76327580991 268.4782608695652,257.30675407077956 Q268.4782608695652,257.8502323316491 268.4782608695652,258.3937105925187 Q268.4782608695652,258.93718885338825 268.4782608695652,258.93718885338825 Q268.4782608695652,258.93718885338825 268.4782608695652,259.4806671142578 Q268.4782608695652,260.0241453751274 268.4782608695652,260.0241453751274 L268.4782608695652,260.0241453751274" stroke="#00ffbf" stroke-width="8" fill="none"/><path d="M264.1304347826087,199.15458015773606 L264.1304347826087,199.15458015773606" stroke="#00ffbf" stroke-width="8" fill="none"/><path d="M295.65217391304344,200.2415366794752 Q295.65217391304344,200.2415366794752 295.65217391304344,200.78501494034475 Q295.65217391304344,201.32849320121431 295.65217391304344,203.50240624469257 Q295.65217391304344,205.67631928817084 295.65217391304344,208.3937105925187 Q295.65217391304344,211.1111018968665 295.65217391304344,211.65458015773606 Q295.65217391304344,212.19805841860563 295.65217391304344,214.37197146208388 Q295.65217391304344,216.54588450556216 295.65217391304344,220.35023233164912 Q295.65217391304344,224.15458015773606 295.65217391304344,225.2415366794752 Q295.65217391304344,226.32849320121431 296.195652173913,231.2197975490404 Q296.7391304347826,236.1111018968665 296.7391304347826,237.7415366794752 Q296.7391304347826,239.37197146208388 296.7391304347826,240.458927983823 Q296.7391304347826,241.54588450556216 296.7391304347826,242.08936276643172 Q296.7391304347826,242.63284102730128 296.7391304347826,243.17631928817084 Q296.7391304347826,243.7197975490404 296.7391304347826,245.35023233164912 Q296.7391304347826,246.9806671142578 296.7391304347826,246.9806671142578 Q296.7391304347826,246.9806671142578 296.7391304347826,247.52414537512738 Q296.7391304347826,248.06762363599694 296.7391304347826,248.6111018968665 Q296.7391304347826,249.15458015773606 296.7391304347826,249.69805841860563 Q296.7391304347826,250.2415366794752 296.7391304347826,250.78501494034475 Q296.7391304347826,251.32849320121431 296.7391304347826,252.41544972295344 Q296.7391304347826,253.5024062446926 296.7391304347826,253.5024062446926 Q296.7391304347826,253.5024062446926 296.7391304347826,254.58936276643172 Q296.7391304347826,255.67631928817084 296.7391304347826,255.67631928817084 Q296.7391304347826,255.67631928817084 296.7391304347826,256.21979754904044 Q296.7391304347826,256.76327580991 296.7391304347826,256.76327580991 Q296.7391304347826,256.76327580991 296.7391304347826,256.76327580991 Q296.7391304347826,256.76327580991 296.7391304347826,257.30675407077956 Q296.7391304347826,257.8502323316491 296.7391304347826,258.3937105925187 Q296.7391304347826,258.93718885338825 296.7391304347826,258.93718885338825 Q296.7391304347826,258.93718885338825 297.2826086956522,259.4806671142578 Q297.82608695652175,260.0241453751274 297.82608695652175,260.0241453751274 Q297.82608695652175,260.0241453751274 297.82608695652175,260.0241453751274 Q297.82608695652175,260.0241453751274 297.82608695652175,259.4806671142578 Q297.82608695652175,258.93718885338825 297.82608695652175,258.3937105925187 Q297.82608695652175,257.8502323316491 297.82608695652175,256.76327580991 Q297.82608695652175,255.67631928817084 297.82608695652175,255.13284102730128 Q297.82608695652175,254.58936276643172 297.82608695652175,253.50240624469257 Q297.82608695652175,252.41544972295344 297.82608695652175,252.41544972295344 Q297.82608695652175,252.41544972295344 297.82608695652175,251.87197146208388 Q297.82608695652175,251.32849320121431 297.82608695652175,250.78501494034475 Q297.82608695652175,250.2415366794752 297.82608695652175,249.69805841860563 Q297.82608695652175,249.15458015773606 297.82608695652175,248.6111018968665 Q297.82608695652175,248.06762363599694 297.82608695652175,247.52414537512738 Q297.82608695652175,246.9806671142578 297.82608695652175,246.9806671142578 Q297.82608695652175,246.9806671142578 297.82608695652175,246.43718885338825 Q297.82608695652175,245.89371059251866 298.3695652173913,244.80675407077953 Q298.9130434782609,243.7197975490404 298.9130434782609,243.17631928817084 Q298.9130434782609,242.63284102730128 298.9130434782609,242.63284102730128 Q298.9130434782609,242.63284102730128 298.9130434782609,242.08936276643172 Q298.9130434782609,241.54588450556216 299.45652173913044,239.91544972295344 Q300,238.28501494034475 300,237.7415366794752 Q300,237.19805841860563 300,237.19805841860563 Q300,237.19805841860563 300,236.65458015773606 Q300,236.1111018968665 300,235.56762363599694 Q300,235.02414537512738 301.0869565217391,233.93718885338825 Q302.17391304347825,232.8502323316491 302.17391304347825,232.8502323316491 Q302.17391304347825,232.8502323316491 302.17391304347825,231.76327580990997 Q302.17391304347825,230.67631928817084 303.2608695652174,229.58936276643172 Q304.3478260869565,228.5024062446926 304.3478260869565,227.95892798382303 Q304.3478260869565,227.41544972295347 305.4347826086956,226.87197146208388 Q306.52173913043475,226.32849320121431 307.0652173913043,225.78501494034475 Q307.6086956521739,225.2415366794752 307.6086956521739,224.15458015773606 Q307.6086956521739,223.06762363599694 308.15217391304344,222.52414537512738 Q308.695652173913,221.9806671142578 309.2391304347826,221.43718885338825 Q309.7826086956522,220.89371059251866 309.7826086956522,220.3502323316491 Q309.7826086956522,219.80675407077953 310.32608695652175,219.26327580990997 Q310.8695652173913,218.7197975490404 311.4130434782609,218.17631928817084 Q311.95652173913044,217.63284102730128 312.5,217.08936276643172 Q313.04347826086956,216.54588450556216 313.5869565217391,215.458927983823 Q314.1304347826087,214.37197146208388 314.67391304347825,213.82849320121431 Q315.2173913043478,213.28501494034475 315.2173913043478,213.28501494034475 Q315.2173913043478,213.28501494034475 315.7608695652174,212.7415366794752 Q316.30434782608694,212.19805841860563 316.8478260869565,211.65458015773606 Q317.39130434782606,211.1111018968665 317.39130434782606,210.56762363599694 Q317.39130434782606,210.02414537512738 317.9347826086956,210.02414537512738 Q318.4782608695652,210.02414537512738 318.4782608695652,209.4806671142578 Q318.4782608695652,208.93718885338825 319.02173913043475,208.93718885338825 Q319.5652173913043,208.93718885338825 320.1086956521739,208.93718885338825 Q320.65217391304344,208.93718885338825 320.65217391304344,208.3937105925187 Q320.65217391304344,207.8502323316491 321.195652173913,207.8502323316491 Q321.73913043478257,207.8502323316491 321.73913043478257,207.8502323316491 Q321.73913043478257,207.8502323316491 322.28260869565213,207.8502323316491 Q322.82608695652175,207.8502323316491 323.3695652173913,207.30675407077953 Q323.9130434782609,206.76327580990997 323.9130434782609,206.76327580990997 Q323.9130434782609,206.76327580990997 324.45652173913044,206.76327580990997 Q325,206.76327580990997 325.54347826086956,206.76327580990997 Q326.0869565217391,206.76327580990997 327.17391304347825,206.76327580990997 Q328.2608695652174,206.76327580990997 328.2608695652174,206.76327580990997 Q328.2608695652174,206.76327580990997 328.80434782608694,206.76327580990997 Q329.3478260869565,206.76327580990997 329.3478260869565,206.76327580990997 Q329.3478260869565,206.76327580990997 329.89130434782606,206.76327580990997 Q330.4347826086956,206.76327580990997 330.9782608695652,207.30675407077953 Q331.52173913043475,207.8502323316491 332.0652173913043,207.8502323316491 Q332.6086956521739,207.8502323316491 332.6086956521739,208.3937105925187 Q332.6086956521739,208.93718885338825 333.15217391304344,208.93718885338825 Q333.695652173913,208.93718885338825 333.695652173913,209.4806671142578 Q333.695652173913,210.02414537512738 334.2391304347826,210.56762363599694 Q334.7826086956522,211.1111018968665 334.7826086956522,211.65458015773606 Q334.7826086956522,212.19805841860563 335.32608695652175,212.7415366794752 Q335.8695652173913,213.28501494034475 335.8695652173913,214.37197146208388 Q335.8695652173913,215.45892798382303 335.8695652173913,215.45892798382303 Q335.8695652173913,215.45892798382303 336.4130434782609,216.0024062446926 Q336.95652173913044,216.54588450556216 336.95652173913044,217.08936276643172 Q336.95652173913044,217.63284102730128 336.95652173913044,218.7197975490404 Q336.95652173913044,219.80675407077953 336.95652173913044,220.3502323316491 Q336.95652173913044,220.89371059251866 336.95652173913044,222.52414537512738 Q336.95652173913044,224.15458015773606 336.95652173913044,224.69805841860563 Q336.95652173913044,225.2415366794752 336.95652173913044,225.78501494034475 Q336.95652173913044,226.32849320121431 336.95652173913044,227.41544972295344 Q336.95652173913044,228.5024062446926 336.95652173913044,229.04588450556216 Q336.95652173913044,229.58936276643172 336.95652173913044,230.13284102730128 Q336.95652173913044,230.67631928817084 336.95652173913044,230.67631928817084 Q336.95652173913044,230.67631928817084 336.95652173913044,231.2197975490404 Q336.95652173913044,231.76327580990997 336.95652173913044,232.30675407077953 Q336.95652173913044,232.8502323316491 336.95652173913044,233.3937105925187 Q336.95652173913044,233.93718885338825 336.95652173913044,234.4806671142578 Q336.95652173913044,235.02414537512738 336.95652173913044,235.56762363599694 Q336.95652173913044,236.1111018968665 336.95652173913044,236.65458015773606 Q336.95652173913044,237.19805841860563 336.95652173913044,237.7415366794752 Q336.95652173913044,238.28501494034475 336.95652173913044,239.37197146208388 Q336.95652173913044,240.45892798382303 336.95652173913044,241.0024062446926 Q336.95652173913044,241.54588450556216 337.5,242.08936276643172 Q338.04347826086956,242.63284102730128 338.5869565217391,243.7197975490404 Q339.1304347826087,244.80675407077953 339.1304347826087,244.80675407077953 Q339.1304347826087,244.80675407077953 339.67391304347825,245.3502323316491 Q340.2173913043478,245.89371059251866 340.2173913043478,245.89371059251866 Q340.2173913043478,245.89371059251866 340.2173913043478,245.89371059251866 Q340.2173913043478,245.89371059251866 340.2173913043478,246.43718885338825 Q340.2173913043478,246.9806671142578 340.7608695652174,246.9806671142578 Q341.30434782608694,246.9806671142578 341.30434782608694,246.9806671142578 Q341.30434782608694,246.9806671142578 341.8478260869565,247.52414537512738 Q342.39130434782606,248.06762363599694 342.39130434782606,248.06762363599694 Q342.39130434782606,248.06762363599694 342.9347826086956,248.06762363599694 L343.4782608695652,248.06762363599694" stroke="#00ffbf" stroke-width="8" fill="none"/><path d="M356.52173913043475,227.41544972295347 Q372.82608695652175,225.2415366794752 373.9130434782609,225.2415366794752 Q375,225.2415366794752 377.17391304347825,224.69805841860563 Q379.3478260869565,224.15458015773606 381.52173913043475,223.06762363599694 Q383.695652173913,221.9806671142578 386.9565217391304,220.8937105925187 Q390.2173913043478,219.80675407077953 390.2173913043478,219.26327580990997 Q390.2173913043478,218.7197975490404 391.30434782608694,218.7197975490404 Q392.39130434782606,218.7197975490404 392.39130434782606,218.17631928817084 Q392.39130434782606,217.63284102730128 392.9347826086956,217.63284102730128 Q393.4782608695652,217.63284102730128 393.4782608695652,217.08936276643172 Q393.4782608695652,216.54588450556216 394.02173913043475,216.54588450556216 Q394.5652173913043,216.54588450556216 394.5652173913043,216.0024062446926 Q394.5652173913043,215.45892798382303 394.5652173913043,214.91544972295344 Q394.5652173913043,214.37197146208388 395.1086956521739,213.82849320121431 Q395.65217391304344,213.28501494034475 395.65217391304344,213.28501494034475 Q395.65217391304344,213.28501494034475 396.195652173913,212.19805841860563 Q396.73913043478257,211.1111018968665 396.73913043478257,210.56762363599694 Q396.73913043478257,210.02414537512738 396.73913043478257,210.02414537512738 Q396.73913043478257,210.02414537512738 397.28260869565213,209.4806671142578 Q397.82608695652175,208.93718885338825 397.82608695652175,208.3937105925187 Q397.82608695652175,207.8502323316491 397.82608695652175,207.30675407077953 Q397.82608695652175,206.76327580990997 397.28260869565213,206.76327580990997 Q396.73913043478257,206.76327580990997 396.195652173913,206.2197975490404 Q395.65217391304344,205.67631928817084 395.1086956521739,205.13284102730128 Q394.5652173913043,204.58936276643172 394.02173913043475,204.58936276643172 Q393.4782608695652,204.58936276643172 392.9347826086956,204.04588450556216 Q392.39130434782606,203.5024062446926 391.8478260869565,203.5024062446926 Q391.30434782608694,203.5024062446926 391.30434782608694,203.5024062446926 Q391.30434782608694,203.5024062446926 390.2173913043478,202.95892798382303 Q389.1304347826087,202.41544972295347 388.5869565217391,202.41544972295347 Q388.04347826086956,202.41544972295347 387.5,201.87197146208388 Q386.95652173913044,201.32849320121431 385.86956521739125,201.32849320121431 Q384.78260869565213,201.32849320121431 384.23913043478257,201.32849320121431 Q383.695652173913,201.32849320121431 383.15217391304344,201.32849320121431 Q382.6086956521739,201.32849320121431 382.0652173913043,200.78501494034475 Q381.52173913043475,200.2415366794752 380.9782608695652,200.2415366794752 Q380.4347826086956,200.2415366794752 379.89130434782606,200.2415366794752 Q379.3478260869565,200.2415366794752 378.80434782608694,200.2415366794752 Q378.2608695652174,200.2415366794752 377.7173913043478,200.2415366794752 Q377.17391304347825,200.2415366794752 376.6304347826087,200.2415366794752 Q376.0869565217391,200.2415366794752 375.54347826086956,200.2415366794752 Q375,200.2415366794752 374.45652173913044,200.78501494034475 Q373.9130434782609,201.32849320121431 372.82608695652175,201.87197146208388 Q371.73913043478257,202.41544972295347 371.195652173913,202.41544972295347 Q370.65217391304344,202.41544972295347 370.1086956521739,202.95892798382303 Q369.5652173913043,203.5024062446926 369.5652173913043,204.04588450556216 Q369.5652173913043,204.58936276643172 369.5652173913043,204.58936276643172 Q369.5652173913043,204.58936276643172 369.02173913043475,205.13284102730128 Q368.4782608695652,205.67631928817084 367.9347826086956,205.67631928817084 Q367.39130434782606,205.67631928817084 367.39130434782606,206.2197975490404 Q367.39130434782606,206.76327580990997 366.8478260869565,207.30675407077953 Q366.30434782608694,207.8502323316491 366.30434782608694,208.3937105925187 Q366.30434782608694,208.93718885338825 366.30434782608694,209.4806671142578 Q366.30434782608694,210.02414537512738 365.7608695652174,210.56762363599694 Q365.2173913043478,211.1111018968665 364.67391304347825,211.65458015773606 Q364.1304347826087,212.19805841860563 363.5869565217391,212.7415366794752 Q363.04347826086956,213.28501494034475 363.04347826086956,213.82849320121431 Q363.04347826086956,214.37197146208388 362.5,214.91544972295344 Q361.95652173913044,215.45892798382303 361.4130434782609,215.45892798382303 Q360.8695652173913,215.45892798382303 360.32608695652175,216.0024062446926 Q359.7826086956522,216.54588450556216 359.7826086956522,217.08936276643172 Q359.7826086956522,217.63284102730128 359.7826086956522,217.63284102730128 Q359.7826086956522,217.63284102730128 359.7826086956522,217.63284102730128 Q359.7826086956522,217.63284102730128 359.2391304347826,218.17631928817084 Q358.695652173913,218.7197975490404 358.695652173913,219.80675407077953 Q358.695652173913,220.89371059251866 358.695652173913,221.43718885338825 Q358.695652173913,221.9806671142578 358.695652173913,223.06762363599694 Q358.695652173913,224.15458015773606 358.695652173913,225.2415366794752 Q358.695652173913,226.32849320121431 359.2391304347826,227.41544972295344 Q359.7826086956522,228.5024062446926 359.7826086956522,229.04588450556216 Q359.7826086956522,229.58936276643172 359.7826086956522,229.58936276643172 Q359.7826086956522,229.58936276643172 359.7826086956522,230.13284102730128 Q359.7826086956522,230.67631928817084 359.7826086956522,231.2197975490404 Q359.7826086956522,231.76327580990997 360.32608695652175,232.30675407077953 Q360.8695652173913,232.8502323316491 360.8695652173913,233.3937105925187 Q360.8695652173913,233.93718885338825 361.4130434782609,234.4806671142578 Q361.95652173913044,235.02414537512738 362.5,235.56762363599694 Q363.04347826086956,236.1111018968665 363.04347826086956,236.65458015773606 Q363.04347826086956,237.19805841860563 363.5869565217391,237.19805841860563 Q364.1304347826087,237.19805841860563 364.67391304347825,237.7415366794752 Q365.2173913043478,238.28501494034475 365.2173913043478,238.28501494034475 Q365.2173913043478,238.28501494034475 365.7608695652174,238.28501494034475 Q366.30434782608694,238.28501494034475 366.8478260869565,238.82849320121431 Q367.39130434782606,239.37197146208388 367.39130434782606,239.91544972295344 Q367.39130434782606,240.45892798382303 367.9347826086956,240.45892798382303 Q368.4782608695652,240.45892798382303 369.02173913043475,240.45892798382303 Q369.5652173913043,240.45892798382303 369.5652173913043,240.45892798382303 Q369.5652173913043,240.45892798382303 370.1086956521739,240.45892798382303 Q370.65217391304344,240.45892798382303 371.195652173913,241.0024062446926 Q371.73913043478257,241.54588450556216 372.28260869565213,241.54588450556216 Q372.82608695652175,241.54588450556216 372.82608695652175,241.54588450556216 Q372.82608695652175,241.54588450556216 373.3695652173913,242.08936276643172 Q373.9130434782609,242.63284102730128 374.45652173913044,242.63284102730128 Q375,242.63284102730128 375.54347826086956,242.63284102730128 Q376.0869565217391,242.63284102730128 376.6304347826087,242.63284102730128 Q377.17391304347825,242.63284102730128 377.7173913043478,242.63284102730128 Q378.2608695652174,242.63284102730128 379.3478260869565,243.17631928817084 Q380.4347826086956,243.7197975490404 380.9782608695652,243.7197975490404 Q381.52173913043475,243.7197975490404 382.6086956521739,244.26327580990997 Q383.695652173913,244.80675407077953 384.23913043478257,244.80675407077953 Q384.78260869565213,244.80675407077953 385.32608695652175,244.80675407077953 Q385.8695652173913,244.80675407077953 386.4130434782609,244.80675407077953 Q386.95652173913044,244.80675407077953 386.95652173913044,244.80675407077953 Q386.95652173913044,244.80675407077953 387.5,244.80675407077953 Q388.04347826086956,244.80675407077953 388.04347826086956,244.80675407077953 Q388.04347826086956,244.80675407077953 388.5869565217391,244.80675407077953 Q389.1304347826087,244.80675407077953 389.67391304347825,244.80675407077953 Q390.2173913043478,244.80675407077953 391.8478260869565,244.80675407077953 Q393.4782608695652,244.80675407077953 395.1086956521739,244.80675407077953 Q396.73913043478257,244.80675407077953 397.28260869565213,244.80675407077953 Q397.82608695652175,244.80675407077953 398.3695652173913,244.80675407077953 Q398.9130434782609,244.80675407077953 399.45652173913044,244.80675407077953 Q400,244.80675407077953 400.54347826086956,244.80675407077953 Q401.0869565217391,244.80675407077953 401.6304347826087,244.80675407077953 Q402.17391304347825,244.80675407077953 402.17391304347825,244.80675407077953 Q402.17391304347825,244.80675407077953 402.17391304347825,244.80675407077953 Q402.17391304347825,244.80675407077953 402.17391304347825,244.80675407077953 Q402.17391304347825,244.80675407077953 402.7173913043478,244.80675407077953 Q403.2608695652174,244.80675407077953 403.2608695652174,244.80675407077953 L403.2608695652174,244.80675407077953" stroke="#00ffbf" stroke-width="8" fill="none"/><path d="M450,142.63284102730128 Q450,142.63284102730128 450,143.17631928817084 Q450,143.7197975490404 449.45652173913044,145.35023233164912 Q448.9130434782609,146.9806671142578 448.9130434782609,148.6111018968665 Q448.9130434782609,150.2415366794752 448.9130434782609,150.2415366794752 Q448.9130434782609,150.2415366794752 448.36956521739125,152.958927983823 Q447.8260869565217,155.67631928817084 446.73913043478257,161.1111018968665 Q445.65217391304344,166.54588450556216 445.1086956521739,170.35023233164912 Q444.5652173913043,174.15458015773606 444.5652173913043,178.50240624469257 Q444.5652173913043,182.8502323316491 444.5652173913043,187.7415366794752 Q444.5652173913043,192.63284102730128 444.02173913043475,198.06762363599694 Q443.4782608695652,203.5024062446926 443.4782608695652,207.30675407077956 Q443.4782608695652,211.1111018968665 443.4782608695652,212.7415366794752 Q443.4782608695652,214.37197146208388 443.4782608695652,217.63284102730125 Q443.4782608695652,220.89371059251866 443.4782608695652,227.41544972295344 Q443.4782608695652,233.93718885338825 443.4782608695652,237.7415366794752 Q443.4782608695652,241.54588450556216 443.4782608695652,245.35023233164912 Q443.4782608695652,249.15458015773606 443.4782608695652,252.95892798382303 Q443.4782608695652,256.76327580991 443.4782608695652,261.1111018968665 Q443.4782608695652,265.458927983823 443.4782608695652,266.00240624469257 Q443.4782608695652,266.5458845055621 443.4782608695652,267.0893627664317 Q443.4782608695652,267.63284102730125 443.4782608695652,268.1763192881708 Q443.4782608695652,268.71979754904044 443.4782608695652,268.71979754904044 Q443.4782608695652,268.71979754904044 443.4782608695652,268.71979754904044 Q443.4782608695652,268.71979754904044 443.4782608695652,269.26327580991 Q443.4782608695652,269.80675407077956 443.4782608695652,269.80675407077956 Q443.4782608695652,269.80675407077956 443.4782608695652,269.80675407077956 Q443.4782608695652,269.80675407077956 443.4782608695652,269.80675407077956 L443.4782608695652,269.80675407077956" stroke="#00ffbf" stroke-width="8" fill="none"/><path d="M439.1304347826087,213.28501494034475 Q438.04347826086956,213.28501494034475 438.04347826086956,213.28501494034475 Q438.04347826086956,213.28501494034475 437.5,213.28501494034475 Q436.95652173913044,213.28501494034475 436.95652173913044,213.28501494034475 Q436.95652173913044,213.28501494034475 436.4130434782609,213.28501494034475 Q435.8695652173913,213.28501494034475 435.8695652173913,213.28501494034475 Q435.8695652173913,213.28501494034475 435.32608695652175,213.28501494034475 Q434.78260869565213,213.28501494034475 434.78260869565213,213.28501494034475 Q434.78260869565213,213.28501494034475 434.23913043478257,213.28501494034475 Q433.695652173913,213.28501494034475 433.695652173913,213.28501494034475 Q433.695652173913,213.28501494034475 432.6086956521739,213.28501494034475 Q431.52173913043475,213.28501494034475 430.9782608695652,213.82849320121431 Q430.4347826086956,214.37197146208388 429.89130434782606,214.91544972295344 Q429.3478260869565,215.45892798382303 429.3478260869565,216.0024062446926 Q429.3478260869565,216.54588450556216 428.2608695652174,217.63284102730128 Q427.17391304347825,218.7197975490404 426.6304347826087,218.7197975490404 Q426.0869565217391,218.7197975490404 425.54347826086956,219.80675407077953 Q425,220.89371059251866 425,221.43718885338825 Q425,221.9806671142578 424.45652173913044,222.52414537512738 Q423.9130434782609,223.06762363599694 423.9130434782609,223.6111018968665 Q423.9130434782609,224.15458015773606 423.9130434782609,224.69805841860563 Q423.9130434782609,225.2415366794752 423.9130434782609,226.32849320121431 Q423.9130434782609,227.41544972295347 423.9130434782609,227.41544972295347 Q423.9130434782609,227.41544972295347 423.3695652173913,227.95892798382303 Q422.82608695652175,228.5024062446926 422.82608695652175,229.58936276643172 Q422.82608695652175,230.67631928817084 422.82608695652175,231.2197975490404 Q422.82608695652175,231.76327580990997 422.28260869565213,232.30675407077953 Q421.73913043478257,232.8502323316491 421.73913043478257,233.93718885338825 Q421.73913043478257,235.02414537512738 421.73913043478257,237.19805841860563 Q421.73913043478257,239.37197146208388 421.195652173913,239.91544972295344 Q420.65217391304344,240.45892798382303 420.65217391304344,241.54588450556216 Q420.65217391304344,242.63284102730128 420.65217391304344,243.17631928817084 Q420.65217391304344,243.7197975490404 420.65217391304344,244.26327580990997 Q420.65217391304344,244.80675407077953 420.65217391304344,245.8937105925187 Q420.65217391304344,246.9806671142578 420.65217391304344,246.9806671142578 Q420.65217391304344,246.9806671142578 420.65217391304344,247.52414537512738 Q420.65217391304344,248.06762363599694 420.65217391304344,249.15458015773606 Q420.65217391304344,250.2415366794752 420.65217391304344,251.32849320121431 Q420.65217391304344,252.41544972295344 420.65217391304344,253.50240624469257 Q420.65217391304344,254.58936276643172 420.65217391304344,255.13284102730128 Q420.65217391304344,255.67631928817084 420.65217391304344,256.21979754904044 Q420.65217391304344,256.76327580991 421.195652173913,256.76327580991 Q421.73913043478257,256.76327580991 421.73913043478257,257.30675407077956 Q421.73913043478257,257.8502323316491 422.28260869565213,258.3937105925187 Q422.82608695652175,258.93718885338825 422.82608695652175,258.93718885338825 Q422.82608695652175,258.93718885338825 423.9130434782609,258.93718885338825 Q425,258.93718885338825 425.54347826086956,258.93718885338825 Q426.0869565217391,258.93718885338825 426.6304347826087,258.93718885338825 Q427.17391304347825,258.93718885338825 427.7173913043478,258.93718885338825 Q428.2608695652174,258.93718885338825 428.80434782608694,258.93718885338825 Q429.3478260869565,258.93718885338825 430.4347826086956,259.4806671142578 Q431.52173913043475,260.0241453751274 431.52173913043475,260.0241453751274 Q431.52173913043475,260.0241453751274 432.0652173913043,260.0241453751274 Q432.6086956521739,260.0241453751274 433.15217391304344,260.0241453751274 Q433.695652173913,260.0241453751274 433.695652173913,260.0241453751274 Q433.695652173913,260.0241453751274 434.23913043478257,260.0241453751274 Q434.78260869565213,260.0241453751274 435.32608695652175,260.0241453751274 Q435.8695652173913,260.0241453751274 435.8695652173913,260.0241453751274 Q435.8695652173913,260.0241453751274 436.4130434782609,260.0241453751274 Q436.95652173913044,260.0241453751274 436.95652173913044,260.0241453751274 Q436.95652173913044,260.0241453751274 437.5,260.0241453751274 Q438.04347826086956,260.0241453751274 438.5869565217391,260.0241453751274 Q439.1304347826087,260.0241453751274 439.1304347826087,260.0241453751274 Q439.1304347826087,260.0241453751274 439.67391304347825,260.0241453751274 Q440.2173913043478,260.0241453751274 440.7608695652174,260.0241453751274 Q441.30434782608694,260.0241453751274 441.30434782608694,260.0241453751274 Q441.30434782608694,260.0241453751274 441.8478260869565,260.0241453751274 Q442.39130434782606,260.0241453751274 442.39130434782606,260.0241453751274 L442.39130434782606,260.0241453751274" stroke="#00ffbf" stroke-width="8" fill="none"/><path d="M129.3478260869565,333.93718885338825 Q129.3478260869565,333.93718885338825 128.80434782608694,333.93718885338825 Q128.26086956521738,333.93718885338825 128.26086956521738,333.93718885338825 Q128.26086956521738,333.93718885338825 127.71739130434781,333.93718885338825 Q127.17391304347825,333.93718885338825 126.63043478260869,333.93718885338825 Q126.08695652173913,333.93718885338825 125.54347826086956,334.4806671142578 Q125,335.0241453751274 123.91304347826087,335.56762363599694 Q122.82608695652173,336.1111018968665 121.7391304347826,337.7415366794752 Q120.65217391304347,339.3719714620839 120.1086956521739,340.458927983823 Q119.56521739130434,341.5458845055621 119.02173913043478,343.1763192881708 Q118.47826086956522,344.80675407077956 118.47826086956522,345.3502323316491 Q118.47826086956522,345.8937105925187 118.47826086956522,350.78501494034475 Q118.47826086956522,355.6763192881708 118.47826086956522,358.3937105925187 Q118.47826086956522,361.1111018968665 118.47826086956522,361.65458015773606 Q118.47826086956522,362.1980584186056 118.47826086956522,362.1980584186056 Q118.47826086956522,362.1980584186056 118.47826086956522,362.7415366794752 Q118.47826086956522,363.28501494034475 119.02173913043478,363.28501494034475 Q119.56521739130434,363.28501494034475 120.1086956521739,363.28501494034475 Q120.65217391304347,363.28501494034475 121.19565217391303,363.8284932012143 Q121.73913043478261,364.3719714620839 122.82608695652173,364.3719714620839 Q123.91304347826086,364.3719714620839 124.45652173913044,364.3719714620839 Q125,364.3719714620839 126.08695652173913,364.3719714620839 Q127.17391304347825,364.3719714620839 129.3478260869565,363.8284932012143 Q131.52173913043478,363.28501494034475 134.23913043478262,362.7415366794752 Q136.95652173913044,362.1980584186056 140.2173913043478,360.56762363599694 Q143.47826086956522,358.93718885338825 145.65217391304347,357.8502323316491 Q147.82608695652172,356.76327580991 148.3695652173913,355.6763192881708 Q148.91304347826087,354.5893627664317 148.91304347826087,354.0458845055621 Q148.91304347826087,353.50240624469257 148.91304347826087,352.958927983823 Q148.91304347826087,352.41544972295344 148.91304347826087,350.78501494034475 Q148.91304347826087,349.15458015773606 148.91304347826087,348.06762363599694 Q148.91304347826087,346.9806671142578 147.82608695652175,344.26327580990994 Q146.7391304347826,341.5458845055621 146.19565217391303,338.8284932012143 Q145.65217391304347,336.1111018968665 144.02173913043478,334.4806671142578 Q142.3913043478261,332.8502323316491 141.8478260869565,331.76327580990994 Q141.30434782608694,330.6763192881708 140.76086956521738,330.13284102730125 Q140.2173913043478,329.5893627664317 139.67391304347825,329.5893627664317 Q139.1304347826087,329.5893627664317 138.58695652173913,329.5893627664317 Q138.04347826086956,329.5893627664317 136.41304347826087,329.5893627664317 Q134.78260869565216,329.5893627664317 134.2391304347826,329.5893627664317 Q133.69565217391303,329.5893627664317 132.6086956521739,329.5893627664317 Q131.52173913043478,329.5893627664317 131.52173913043478,329.5893627664317 Q131.52173913043478,329.5893627664317 130.97826086956522,329.5893627664317 Q130.43478260869566,329.5893627664317 129.3478260869565,330.13284102730125 Q128.26086956521738,330.6763192881708 128.26086956521738,331.21979754904044 Q128.26086956521738,331.76327580991 127.71739130434781,332.8502323316491 Q127.17391304347825,333.93718885338825 126.08695652173913,335.0241453751274 Q125,336.1111018968665 125,338.8284932012143 Q125,341.5458845055621 124.45652173913044,343.71979754904044 Q123.91304347826086,345.8937105925187 123.3695652173913,347.5241453751274 Q122.82608695652173,349.15458015773606 122.82608695652173,351.3284932012143 Q122.82608695652173,353.50240624469257 122.82608695652173,354.0458845055621 Q122.82608695652173,354.5893627664317 123.3695652173913,355.6763192881708 Q123.91304347826086,356.76327580991 123.91304347826086,356.76327580991 Q123.91304347826086,356.76327580991 124.45652173913044,356.76327580991 Q125,356.76327580991 125.54347826086956,356.76327580991 Q126.08695652173913,356.76327580991 126.63043478260869,356.76327580991 Q127.17391304347825,356.76327580991 127.17391304347825,356.76327580991 Q127.17391304347825,356.76327580991 128.26086956521738,356.76327580991 Q129.3478260869565,356.76327580991 130.9782608695652,356.76327580991 Q132.6086956521739,356.76327580991 133.69565217391303,356.21979754904044 Q134.78260869565216,355.6763192881708 135.32608695652175,355.6763192881708 Q135.8695652173913,355.6763192881708 136.41304347826087,355.13284102730125 Q136.95652173913044,354.5893627664317 137.5,354.0458845055621 Q138.04347826086956,353.50240624469257 138.58695652173913,352.958927983823 Q139.1304347826087,352.41544972295344 139.1304347826087,351.8719714620839 Q139.1304347826087,351.3284932012143 139.1304347826087,350.2415366794752 Q139.1304347826087,349.15458015773606 139.1304347826087,346.9806671142578 Q139.1304347826087,344.80675407077956 138.58695652173913,342.6328410273013 Q138.04347826086956,340.458927983823 137.5,339.91544972295344 Q136.95652173913044,339.3719714620839 136.95652173913044,339.3719714620839 Q136.95652173913044,339.3719714620839 136.41304347826087,339.3719714620839 Q135.8695652173913,339.3719714620839 135.32608695652175,338.8284932012143 Q134.78260869565216,338.28501494034475 134.2391304347826,338.28501494034475 Q133.69565217391303,338.28501494034475 133.15217391304347,338.28501494034475 Q132.6086956521739,338.28501494034475 132.06521739130434,338.28501494034475 Q131.52173913043478,338.28501494034475 131.52173913043478,338.28501494034475 Q131.52173913043478,338.28501494034475 130.43478260869563,338.28501494034475 Q129.3478260869565,338.28501494034475 128.80434782608694,338.8284932012143 Q128.26086956521738,339.3719714620839 128.26086956521738,339.91544972295344 Q128.26086956521738,340.458927983823 127.71739130434781,341.00240624469257 Q127.17391304347825,341.5458845055621 127.17391304347825,342.63284102730125 Q127.17391304347825,343.7197975490404 127.17391304347825,344.26327580990994 Q127.17391304347825,344.80675407077956 127.17391304347825,345.3502323316491 Q127.17391304347825,345.8937105925187 127.17391304347825,346.43718885338825 Q127.17391304347825,346.9806671142578 127.17391304347825,346.9806671142578 Q127.17391304347825,346.9806671142578 127.17391304347825,347.5241453751274 Q127.17391304347825,348.06762363599694 128.26086956521738,348.06762363599694 Q129.3478260869565,348.06762363599694 129.3478260869565,348.06762363599694 Q129.3478260869565,348.06762363599694 129.89130434782606,348.06762363599694 Q130.43478260869566,348.06762363599694 131.52173913043478,348.06762363599694 Q132.6086956521739,348.06762363599694 133.15217391304347,347.5241453751274 Q133.69565217391303,346.9806671142578 133.69565217391303,346.9806671142578 Q133.69565217391303,346.9806671142578 134.2391304347826,346.9806671142578 Q134.78260869565216,346.9806671142578 135.32608695652175,346.9806671142578 Q135.8695652173913,346.9806671142578 136.41304347826087,346.43718885338825 Q136.95652173913044,345.8937105925187 137.5,345.3502323316491 Q138.04347826086956,344.80675407077956 138.04347826086956,343.71979754904044 Q138.04347826086956,342.63284102730125 138.04347826086956,342.0893627664317 Q138.04347826086956,341.5458845055621 138.04347826086956,341.00240624469257 Q138.04347826086956,340.458927983823 138.04347826086956,340.458927983823 Q138.04347826086956,340.458927983823 138.04347826086956,339.91544972295344 Q138.04347826086956,339.3719714620839 137.5,339.3719714620839 Q136.95652173913044,339.3719714620839 136.95652173913044,339.3719714620839 Q136.95652173913044,339.3719714620839 136.41304347826087,339.91544972295344 Q135.8695652173913,340.458927983823 135.32608695652175,341.00240624469257 Q134.78260869565216,341.5458845055621 134.78260869565216,342.0893627664317 Q134.78260869565216,342.63284102730125 134.78260869565216,343.1763192881708 Q134.78260869565216,343.7197975490404 134.78260869565216,344.26327580990994 Q134.78260869565216,344.80675407077956 134.78260869565216,344.80675407077956 Q134.78260869565216,344.80675407077956 134.78260869565216,345.3502323316491 Q134.78260869565216,345.8937105925187 134.78260869565216,345.8937105925187 Q134.78260869565216,345.8937105925187 135.32608695652175,345.8937105925187 Q135.8695652173913,345.8937105925187 136.95652173913044,346.43718885338825 Q138.04347826086956,346.9806671142578 138.04347826086956,346.9806671142578 Q138.04347826086956,346.9806671142578 138.58695652173913,346.9806671142578 Q139.1304347826087,346.9806671142578 139.67391304347825,346.9806671142578 Q140.2173913043478,346.9806671142578 140.76086956521738,346.9806671142578 Q141.30434782608694,346.9806671142578 141.8478260869565,346.9806671142578 Q142.3913043478261,346.9806671142578 143.47826086956522,346.9806671142578 Q144.56521739130434,346.9806671142578 144.56521739130434,346.43718885338825 Q144.56521739130434,345.8937105925187 145.1086956521739,345.3502323316491 Q145.65217391304347,344.80675407077956 145.65217391304347,344.26327580990994 Q145.65217391304347,343.7197975490404 145.65217391304347,342.63284102730125 Q145.65217391304347,341.5458845055621 145.65217391304347,341.00240624469257 Q145.65217391304347,340.458927983823 145.65217391304347,340.458927983823 Q145.65217391304347,340.458927983823 145.1086956521739,340.458927983823 Q144.56521739130434,340.458927983823 144.56521739130434,340.458927983823 Q144.56521739130434,340.458927983823 143.47826086956522,340.458927983823 L142.3913043478261,340.458927983823" stroke="#00ffbf" stroke-width="8" fill="none"/><path d="M318.4782608695652,335.0241453751274 Q317.39130434782606,335.0241453751274 317.39130434782606,335.0241453751274 Q317.39130434782606,335.0241453751274 316.8478260869565,335.0241453751274 Q316.30434782608694,335.0241453751274 315.7608695652174,335.0241453751274 Q315.2173913043478,335.0241453751274 314.67391304347825,335.56762363599694 Q314.1304347826087,336.1111018968665 313.04347826086956,336.65458015773606 Q311.95652173913044,337.1980584186056 310.8695652173913,337.7415366794752 Q309.7826086956522,338.28501494034475 308.1521739130435,339.91544972295344 Q306.52173913043475,341.5458845055621 304.89130434782606,343.71979754904044 Q303.2608695652174,345.8937105925187 302.7173913043478,346.43718885338825 Q302.17391304347825,346.9806671142578 302.17391304347825,347.5241453751274 Q302.17391304347825,348.06762363599694 302.17391304347825,348.6111018968665 Q302.17391304347825,349.15458015773606 302.17391304347825,350.2415366794752 Q302.17391304347825,351.3284932012143 302.7173913043478,352.41544972295344 Q303.2608695652174,353.50240624469257 303.2608695652174,354.0458845055621 Q303.2608695652174,354.5893627664317 303.80434782608694,354.5893627664317 Q304.3478260869565,354.5893627664317 304.3478260869565,354.5893627664317 Q304.3478260869565,354.5893627664317 304.89130434782606,355.13284102730125 Q305.4347826086956,355.6763192881708 305.9782608695652,355.6763192881708 Q306.52173913043475,355.6763192881708 306.52173913043475,355.6763192881708 Q306.52173913043475,355.6763192881708 307.0652173913043,356.21979754904044 Q307.6086956521739,356.76327580991 308.15217391304344,356.76327580991 Q308.695652173913,356.76327580991 310.32608695652175,356.76327580991 Q311.95652173913044,356.76327580991 313.5869565217391,356.76327580991 Q315.2173913043478,356.76327580991 315.7608695652174,356.76327580991 Q316.30434782608694,356.76327580991 316.8478260869565,356.76327580991 Q317.39130434782606,356.76327580991 317.39130434782606,356.76327580991 Q317.39130434782606,356.76327580991 317.9347826086956,356.76327580991 Q318.4782608695652,356.76327580991 318.4782608695652,356.21979754904044 Q318.4782608695652,355.6763192881708 318.4782608695652,355.13284102730125 Q318.4782608695652,354.5893627664317 318.4782608695652,353.50240624469257 Q318.4782608695652,352.41544972295344 319.02173913043475,351.8719714620839 Q319.5652173913043,351.3284932012143 319.5652173913043,349.6980584186056 Q319.5652173913043,348.06762363599694 319.5652173913043,346.43718885338825 Q319.5652173913043,344.80675407077956 319.5652173913043,343.71979754904044 Q319.5652173913043,342.63284102730125 319.5652173913043,339.91544972295344 Q319.5652173913043,337.1980584186056 319.02173913043475,336.65458015773606 Q318.4782608695652,336.1111018968665 318.4782608695652,335.56762363599694 Q318.4782608695652,335.0241453751274 317.9347826086956,335.0241453751274 Q317.39130434782606,335.0241453751274 316.8478260869565,335.0241453751274 Q316.30434782608694,335.0241453751274 316.30434782608694,334.4806671142578 Q316.30434782608694,333.93718885338825 315.7608695652174,333.93718885338825 Q315.2173913043478,333.93718885338825 314.67391304347825,333.93718885338825 Q314.1304347826087,333.93718885338825 313.5869565217391,333.93718885338825 Q313.04347826086956,333.93718885338825 312.5,333.93718885338825 Q311.95652173913044,333.93718885338825 311.4130434782609,333.93718885338825 Q310.8695652173913,333.93718885338825 310.32608695652175,333.93718885338825 Q309.7826086956522,333.93718885338825 309.2391304347826,333.93718885338825 Q308.695652173913,333.93718885338825 308.15217391304344,334.4806671142578 Q307.6086956521739,335.0241453751274 306.52173913043475,336.1111018968665 Q305.4347826086956,337.1980584186056 304.89130434782606,337.7415366794752 Q304.3478260869565,338.28501494034475 304.3478260869565,339.3719714620839 Q304.3478260869565,340.458927983823 304.3478260869565,341.00240624469257 Q304.3478260869565,341.5458845055621 304.3478260869565,342.63284102730125 Q304.3478260869565,343.7197975490404 304.3478260869565,344.26327580990994 Q304.3478260869565,344.80675407077956 304.89130434782606,344.80675407077956 Q305.4347826086956,344.80675407077956 305.4347826086956,345.3502323316491 Q305.4347826086956,345.8937105925187 305.9782608695652,346.43718885338825 Q306.52173913043475,346.9806671142578 307.6086956521739,347.5241453751274 Q308.695652173913,348.06762363599694 308.695652173913,348.06762363599694 Q308.695652173913,348.06762363599694 309.78260869565213,348.06762363599694 Q310.8695652173913,348.06762363599694 311.4130434782609,348.06762363599694 Q311.95652173913044,348.06762363599694 312.5,348.06762363599694 Q313.04347826086956,348.06762363599694 314.67391304347825,348.06762363599694 Q316.30434782608694,348.06762363599694 316.8478260869565,348.06762363599694 Q317.39130434782606,348.06762363599694 317.9347826086956,347.5241453751274 Q318.4782608695652,346.9806671142578 319.02173913043475,346.9806671142578 Q319.5652173913043,346.9806671142578 320.65217391304344,345.35023233164907 Q321.73913043478257,343.7197975490404 321.73913043478257,343.1763192881708 Q321.73913043478257,342.63284102730125 322.28260869565213,342.0893627664317 Q322.82608695652175,341.5458845055621 322.82608695652175,341.00240624469257 Q322.82608695652175,340.458927983823 322.82608695652175,339.91544972295344 Q322.82608695652175,339.3719714620839 322.82608695652175,338.8284932012143 Q322.82608695652175,338.28501494034475 322.28260869565213,338.28501494034475 Q321.73913043478257,338.28501494034475 321.73913043478257,337.7415366794752 Q321.73913043478257,337.1980584186056 321.195652173913,337.1980584186056 Q320.65217391304344,337.1980584186056 319.5652173913043,337.1980584186056 Q318.4782608695652,337.1980584186056 317.9347826086956,336.65458015773606 Q317.39130434782606,336.1111018968665 316.8478260869565,336.1111018968665 Q316.30434782608694,336.1111018968665 315.7608695652174,336.1111018968665 Q315.2173913043478,336.1111018968665 315.2173913043478,336.1111018968665 Q315.2173913043478,336.1111018968665 314.1304347826087,336.1111018968665 Q313.04347826086956,336.1111018968665 311.95652173913044,337.1980584186056 Q310.8695652173913,338.28501494034475 310.32608695652175,338.8284932012143 Q309.7826086956522,339.3719714620839 309.2391304347826,340.458927983823 Q308.695652173913,341.5458845055621 308.15217391304344,342.0893627664317 Q307.6086956521739,342.63284102730125 307.6086956521739,343.1763192881708 Q307.6086956521739,343.7197975490404 307.6086956521739,344.26327580990994 Q307.6086956521739,344.80675407077956 307.6086956521739,345.3502323316491 Q307.6086956521739,345.8937105925187 307.6086956521739,346.43718885338825 Q307.6086956521739,346.9806671142578 307.6086956521739,347.5241453751274 Q307.6086956521739,348.06762363599694 308.15217391304344,348.06762363599694 Q308.695652173913,348.06762363599694 309.2391304347826,348.6111018968665 Q309.7826086956522,349.15458015773606 310.8695652173913,349.15458015773606 Q311.95652173913044,349.15458015773606 312.5,349.6980584186056 Q313.04347826086956,350.2415366794752 313.5869565217391,350.2415366794752 Q314.1304347826087,350.2415366794752 314.67391304347825,350.2415366794752 Q315.2173913043478,350.2415366794752 316.30434782608694,350.2415366794752 Q317.39130434782606,350.2415366794752 318.4782608695652,350.2415366794752 Q319.5652173913043,350.2415366794752 319.5652173913043,350.2415366794752 Q319.5652173913043,350.2415366794752 320.65217391304344,349.6980584186056 Q321.73913043478257,349.15458015773606 322.28260869565213,349.15458015773606 Q322.82608695652175,349.15458015773606 323.3695652173913,348.6111018968665 Q323.9130434782609,348.06762363599694 323.9130434782609,347.5241453751274 Q323.9130434782609,346.9806671142578 323.9130434782609,346.43718885338825 Q323.9130434782609,345.8937105925187 325,344.80675407077956 Q326.0869565217391,343.7197975490404 326.0869565217391,342.63284102730125 Q326.0869565217391,341.5458845055621 326.0869565217391,341.5458845055621 Q326.0869565217391,341.5458845055621 326.0869565217391,341.00240624469257 Q326.0869565217391,340.458927983823 326.0869565217391,339.91544972295344 Q326.0869565217391,339.3719714620839 326.0869565217391,339.3719714620839 Q326.0869565217391,339.3719714620839 325.54347826086956,338.8284932012143 Q325,338.28501494034475 324.45652173913044,338.28501494034475 Q323.9130434782609,338.28501494034475 323.3695652173913,337.7415366794752 Q322.82608695652175,337.1980584186056 322.28260869565213,337.1980584186056 Q321.73913043478257,337.1980584186056 320.65217391304344,337.1980584186056 Q319.5652173913043,337.1980584186056 319.5652173913043,337.1980584186056 Q319.5652173913043,337.1980584186056 317.9347826086956,338.28501494034475 Q316.30434782608694,339.3719714620839 314.1304347826087,340.458927983823 Q311.95652173913044,341.5458845055621 310.32608695652175,343.1763192881708 Q308.695652173913,344.80675407077956 308.695652173913,346.43718885338825 Q308.695652173913,348.06762363599694 308.15217391304344,348.6111018968665 Q307.6086956521739,349.15458015773606 307.6086956521739,349.6980584186056 Q307.6086956521739,350.2415366794752 307.6086956521739,350.78501494034475 Q307.6086956521739,351.3284932012143 308.15217391304344,351.8719714620839 Q308.695652173913,352.41544972295344 308.695652173913,352.41544972295344 Q308.695652173913,352.41544972295344 309.2391304347826,352.958927983823 Q309.7826086956522,353.50240624469257 310.32608695652175,353.50240624469257 Q310.8695652173913,353.50240624469257 311.95652173913044,353.50240624469257 Q313.04347826086956,353.50240624469257 313.5869565217391,353.50240624469257 Q314.1304347826087,353.50240624469257 314.67391304347825,353.50240624469257 Q315.2173913043478,353.50240624469257 316.30434782608694,353.50240624469257 Q317.39130434782606,353.50240624469257 318.4782608695652,353.50240624469257 Q319.5652173913043,353.50240624469257 319.5652173913043,353.50240624469257 L319.5652173913043,353.50240624469257" stroke="#00ffbf" stroke-width="8" fill="none"/><path d="M96.73913043478261,375.2415366794752 Q96.73913043478261,376.3284932012143 96.73913043478261,380.1328410273013 Q96.73913043478261,383.93718885338825 96.73913043478261,385.56762363599694 Q96.73913043478261,387.1980584186056 96.73913043478261,387.7415366794752 Q96.73913043478261,388.28501494034475 96.73913043478261,390.458927983823 Q96.73913043478261,392.63284102730125 96.73913043478261,395.35023233164907 Q96.73913043478261,398.06762363599694 96.73913043478261,401.8719714620839 Q96.73913043478261,405.6763192881708 97.82608695652173,408.3937105925187 Q98.91304347826086,411.1111018968665 99.45652173913044,412.1980584186056 Q100,413.28501494034475 100,413.28501494034475 Q100,413.28501494034475 101.08695652173913,413.8284932012143 Q102.17391304347825,414.3719714620839 103.80434782608694,415.458927983823 Q105.43478260869564,416.5458845055621 105.97826086956522,416.5458845055621 Q106.52173913043478,416.5458845055621 110.32608695652173,416.5458845055621 Q114.13043478260869,416.5458845055621 118.47826086956522,417.0893627664317 Q122.82608695652173,417.63284102730125 132.06521739130434,417.63284102730125 Q141.30434782608694,417.63284102730125 144.56521739130432,417.63284102730125 Q147.82608695652172,417.63284102730125 153.80434782608694,417.63284102730125 Q159.78260869565216,417.63284102730125 166.30434782608694,417.63284102730125 Q172.82608695652172,417.63284102730125 180.9782608695652,417.0893627664317 Q189.1304347826087,416.5458845055621 192.39130434782606,415.458927983823 Q195.65217391304347,414.3719714620839 198.91304347826087,412.1980584186056 Q202.17391304347825,410.0241453751274 204.89130434782606,407.85023233164907 Q207.6086956521739,405.6763192881708 210.32608695652175,404.0458845055621 Q213.04347826086956,402.41544972295344 214.1304347826087,401.8719714620839 Q215.2173913043478,401.3284932012143 215.76086956521738,401.3284932012143 Q216.30434782608694,401.3284932012143 216.8478260869565,401.8719714620839 Q217.39130434782606,402.41544972295344 218.4782608695652,402.958927983823 Q219.56521739130434,403.50240624469257 220.65217391304347,404.5893627664317 Q221.7391304347826,405.6763192881708 222.28260869565216,406.2197975490404 Q222.82608695652172,406.76327580990994 223.91304347826087,406.76327580990994 Q225,406.76327580990994 226.6304347826087,407.30675407077956 Q228.26086956521738,407.8502323316491 230.9782608695652,407.8502323316491 Q233.69565217391303,407.8502323316491 238.04347826086956,407.8502323316491 Q242.39130434782606,407.8502323316491 249.4565217391304,408.3937105925187 Q256.52173913043475,408.93718885338825 264.67391304347825,408.93718885338825 Q272.82608695652175,408.93718885338825 276.6304347826087,408.93718885338825 Q280.4347826086956,408.93718885338825 287.5,408.93718885338825 Q294.5652173913043,408.93718885338825 300,408.93718885338825 Q305.4347826086956,408.93718885338825 311.9565217391304,407.30675407077956 Q318.4782608695652,405.6763192881708 322.28260869565213,403.50240624469257 Q326.0869565217391,401.3284932012143 329.3478260869565,399.6980584186056 Q332.6086956521739,398.06762363599694 335.86956521739125,395.8937105925187 Q339.1304347826087,393.7197975490404 342.39130434782606,391.5458845055621 Q345.65217391304344,389.3719714620839 349.4565217391304,387.1980584186056 Q353.2608695652174,385.0241453751274 355.9782608695652,383.3937105925187 Q358.695652173913,381.76327580990994 361.4130434782609,380.13284102730125 Q364.1304347826087,378.50240624469257 366.8478260869565,376.3284932012143 Q369.5652173913043,374.15458015773606 373.36956521739125,371.9806671142578 Q377.17391304347825,369.80675407077956 382.0652173913044,366.00240624469257 Q386.95652173913044,362.1980584186056 388.04347826086956,361.1111018968665 Q389.1304347826087,360.0241453751274 390.7608695652174,358.93718885338825 L392.39130434782606,357.8502323316491" stroke="#00ffbf" stroke-width="8" fill="none"/></svg>