<?xml version="1.0" encoding="utf-8"?>
<!-- Generator: Adobe Illustrator 28.0.0, SVG Export Plug-In . SVG Version: 6.00 Build 0)  -->
<svg version="1.1" id="Layer_1" xmlns="http://www.w3.org/2000/svg" xmlns:xlink="http://www.w3.org/1999/xlink" x="0px" y="0px"
	 viewBox="0 0 846 328" style="enable-background:new 0 0 846 328;" xml:space="preserve">
<style type="text/css">
	.st0{fill:#FFFFFF;}
</style>
<path class="st0" d="M53.3,55.9c-5.8-5.9-8.7-13.3-8.7-22.3c0-9,2.9-16.4,8.7-22.3s12.8-8.8,21.1-8.8c5.8,0,11,1.6,15.8,4.8
	c4.8,3.2,8.4,7.6,10.9,13.1l-3.8,1.7c-2.1-4.8-5.2-8.5-9.3-11.3c-4.1-2.7-8.6-4.1-13.5-4.1c-7.1,0-13.2,2.5-18.1,7.6
	c-5,5-7.4,11.5-7.4,19.3c0,7.8,2.5,14.2,7.4,19.3c5,5,11,7.6,18.1,7.6c7,0,12.9-2.2,17.8-6.7c4.9-4.5,7.5-10.3,7.8-17.3H72.9v-4.1
	h31.2c0.1,0.6,0.1,1.4,0.1,2.5c0,8.6-2.9,15.7-8.7,21.4s-12.8,8.5-21.1,8.5C66.1,64.7,59.1,61.7,53.3,55.9z M110.2,33.1l-4-1.1
	c1.1-3.5,3.1-6.4,6.1-8.6c3-2.2,6.3-3.3,10.1-3.3c4.5,0,8.5,1.5,11.8,4.4c3.3,2.9,5,6.5,5,10.6v28H135v-6.8c-0.6,0.9-1.2,1.7-2,2.5
	c-3.3,3.5-7.4,5.2-12.2,5.2c-4.1,0-7.5-1.1-10.1-3.4c-2.7-2.3-4-5.2-4-8.9c0-3.3,1.2-5.9,3.6-8c2.4-2,5.8-3.3,10.2-3.8l14.6-1.6V36
	c0-3.1-1.2-5.8-3.5-8.1c-2.3-2.3-5.2-3.5-8.7-3.5c-3.1,0-5.8,0.8-8.1,2.4C112.4,28.4,110.9,30.5,110.2,33.1z M135,46.1v-3.6
	L121.2,44c-7,0.8-10.4,3.4-10.4,7.9c0,2.4,1,4.3,2.9,5.8c2,1.5,4.5,2.2,7.7,2.2c4.1,0,7.4-1.3,9.8-3.8C133.7,53.6,135,50.3,135,46.1
	z M161.1,24.4c3.1,0,5.6,1,7.6,3.1c2,2,2.9,4.9,2.9,8.5v27.2h4.2V36c0-3.2,1.2-5.9,3.5-8.2s5.2-3.4,8.5-3.4c3.1,0,5.6,1,7.6,3.1
	c2,2,2.9,4.9,2.9,8.5v27.2h4.2v-28c0-4.3-1.3-7.9-4-10.7c-2.7-2.8-6-4.3-9.9-4.3c-4.5,0-8.3,1.6-11.4,4.7c-1.2,1.2-2,2.4-2.8,3.8
	c-0.7-1.5-1.5-3-2.7-4.2c-2.7-2.8-6-4.3-9.9-4.3c-4.5,0-8.3,1.6-11.4,4.7c-0.6,0.6-1,1.2-1.5,1.8v-5.6h-4.2v42.1h4.2V36
	c0-3.2,1.2-5.9,3.5-8.2S157.8,24.4,161.1,24.4z M213.1,58.3c-4.3-4.3-6.4-9.7-6.4-16.2c0-6.6,2.1-12,6.4-16.2
	c4.2-4.3,9.4-6.4,15.4-6.4c6.1,0,11.2,2.1,15.4,6.2c4.2,4.1,6.4,9.3,6.4,15.6c0,0.6-0.1,1.5-0.2,2.8h-39.1c0.4,4.9,2.4,8.8,5.8,11.9
	c3.4,3.1,7.4,4.6,12.2,4.6c3.5,0,6.7-0.9,9.6-2.6c2.9-1.7,5.1-4.2,6.5-7.2l3.9,1.6c-1.8,3.8-4.5,6.8-8.1,9.1
	c-3.6,2.2-7.6,3.4-11.9,3.4C222.6,64.7,217.4,62.5,213.1,58.3z M210.9,40H246c-0.3-4.8-2.1-8.8-5.4-11.8c-3.3-3.1-7.4-4.6-12.2-4.6
	c-4.6,0-8.6,1.5-11.9,4.5C213.3,31.2,211.4,35.1,210.9,40z M301.1,64.7c6.3,0,12-1.7,17.1-5.1c5.1-3.4,8.9-8,11.4-13.7l-3.9-1.6
	c-2.2,5-5.5,8.9-9.9,11.8c-4.4,2.9-9.3,4.3-14.8,4.3c-7.2,0-13.4-2.5-18.4-7.6s-7.6-11.5-7.6-19.3c0-7.8,2.5-14.2,7.6-19.3
	s11.2-7.6,18.4-7.6c5.3,0,10.1,1.4,14.4,4.1c4.3,2.7,7.6,6.5,9.9,11.3l3.8-1.7c-2.6-5.6-6.4-9.9-11.4-13.1c-5-3.2-10.6-4.8-16.7-4.8
	c-8.5,0-15.6,2.9-21.5,8.8s-8.8,13.3-8.8,22.3c0,9,2.9,16.4,8.8,22.3S292.7,64.7,301.1,64.7z M338.6,58.3C334.2,54,332,48.6,332,42
	c0-6.6,2.2-12,6.6-16.2c4.4-4.3,9.7-6.4,16.1-6.4c6.3,0,11.7,2.1,16.1,6.4s6.6,9.7,6.6,16.2c0,6.6-2.2,12-6.6,16.2
	s-9.7,6.4-16.1,6.4C348.3,64.7,343,62.5,338.6,58.3z M336.2,42c0,5.4,1.8,9.8,5.3,13.3c3.6,3.5,7.9,5.2,13.1,5.2
	c5.2,0,9.5-1.7,13.1-5.2c3.6-3.4,5.3-7.9,5.3-13.3c0-5.4-1.8-9.8-5.3-13.3c-3.6-3.4-7.9-5.2-13.1-5.2c-5.2,0-9.5,1.7-13.1,5.2
	C338,32.2,336.2,36.6,336.2,42z M385.5,0h-4.2v63.1h4.2V0z M395.5,0h-4.2v63.1h4.2V0z M405.9,58.3c-4.3-4.3-6.4-9.7-6.4-16.2
	c0-6.6,2.1-12,6.4-16.2c4.2-4.3,9.4-6.4,15.4-6.4c6.1,0,11.2,2.1,15.4,6.2c4.2,4.1,6.4,9.3,6.4,15.6c0,0.6-0.1,1.5-0.2,2.8h-39.1
	c0.4,4.9,2.4,8.8,5.8,11.9c3.4,3.1,7.4,4.6,12.2,4.6c3.5,0,6.7-0.9,9.6-2.6c2.9-1.7,5.1-4.2,6.5-7.2l3.9,1.6
	c-1.8,3.8-4.5,6.8-8.1,9.1c-3.6,2.2-7.6,3.4-11.9,3.4C415.5,64.7,410.2,62.5,405.9,58.3z M403.8,40h35.1c-0.3-4.8-2.1-8.8-5.4-11.8
	c-3.3-3.1-7.4-4.6-12.2-4.6c-4.6,0-8.6,1.5-11.9,4.5C406.1,31.2,404.2,35.1,403.8,40z M467.7,64.7c4.4,0,8.4-1.1,11.9-3.4
	c3.6-2.2,6.3-5.3,8.1-9.1l-3.9-1.6c-1.5,3.1-3.6,5.5-6.5,7.2c-2.9,1.7-6.1,2.6-9.6,2.6c-5,0-9.3-1.7-12.8-5.2
	c-3.5-3.4-5.2-7.9-5.2-13.3c0-5.4,1.7-9.8,5.2-13.3c3.5-3.4,7.7-5.2,12.8-5.2c3.6,0,6.9,0.9,9.8,2.7c2.9,1.8,5.1,4.3,6.5,7.5
	l3.9-1.6c-1.8-4-4.5-7.1-8.1-9.4c-3.6-2.3-7.6-3.4-12.1-3.4c-6.2,0-11.5,2.1-15.8,6.4s-6.4,9.7-6.4,16.2c0,6.6,2.1,12,6.4,16.2
	S461.4,64.7,467.7,64.7z M495.7,52.7c0,3.2,1.1,5.7,3.2,7.6c2.1,1.9,5,2.8,8.7,2.8h5.6v-4h-5c-5.5,0-8.2-2.4-8.2-7.3V25h13.2v-4
	h-13.2V7.6l-4.2,0.8v12.6h-8v4h8V52.7z M520.5,21.1h-4.2v42.1h4.2V21.1z M518.4,13.3c1,0,1.7-0.3,2.4-0.9c0.6-0.6,0.9-1.4,0.9-2.4
	c0-1-0.3-1.7-0.9-2.4c-0.6-0.6-1.4-0.9-2.4-0.9c-1,0-1.7,0.3-2.4,0.9c-0.6,0.6-0.9,1.4-0.9,2.4c0,1,0.3,1.7,0.9,2.4
	C516.7,13,517.4,13.3,518.4,13.3z M531.1,58.3c-4.4-4.3-6.6-9.7-6.6-16.2c0-6.6,2.2-12,6.6-16.2c4.4-4.3,9.7-6.4,16.1-6.4
	c6.3,0,11.7,2.1,16.1,6.4c4.4,4.3,6.6,9.7,6.6,16.2c0,6.6-2.2,12-6.6,16.2c-4.4,4.3-9.7,6.4-16.1,6.4
	C540.8,64.7,535.5,62.5,531.1,58.3z M528.7,42c0,5.4,1.8,9.8,5.3,13.3c3.6,3.5,7.9,5.2,13.1,5.2c5.2,0,9.5-1.7,13.1-5.2
	c3.6-3.4,5.3-7.9,5.3-13.3c0-5.4-1.8-9.8-5.3-13.3c-3.6-3.4-7.9-5.2-13.1-5.2c-5.2,0-9.5,1.7-13.1,5.2
	C530.5,32.2,528.7,36.6,528.7,42z M578.1,37.7c0-3.6,1.3-6.8,4-9.4c2.7-2.6,5.9-3.9,9.7-3.9c3.6,0,6.5,1.2,8.8,3.5
	c2.3,2.4,3.4,5.6,3.4,9.8v25.5h4.2V36.8c0-4.8-1.5-8.8-4.5-11.9c-3-3.1-6.7-4.7-11.1-4.7c-5,0-9.2,1.7-12.6,5.2
	c-0.7,0.7-1.4,1.5-1.9,2.3v-6.6h-4.2v42.1h4.2V37.7z M636.4,35.6h31.6v-4h-31.6V8.3h33.7v-4h-37.9v58.9h4.2V35.6z M678.3,36.8
	c0-3.4,1.4-6.2,4.1-8.6c2.7-2.4,6.1-3.6,10-3.6h1.5v-4.2h-2.4c-4.5,0-8.4,1.7-11.6,5.2c-0.6,0.7-1.2,1.4-1.7,2.1v-6.6h-4.2v42.1h4.2
	V36.8z M693.4,42c0-6.6,2.2-12,6.6-16.2c4.4-4.3,9.7-6.4,16.1-6.4c6.3,0,11.7,2.1,16.1,6.4c4.4,4.3,6.6,9.7,6.6,16.2
	c0,6.6-2.2,12-6.6,16.2c-4.4,4.3-9.7,6.4-16.1,6.4c-6.3,0-11.7-2.1-16.1-6.4C695.6,54,693.4,48.6,693.4,42z M697.6,42
	c0,5.4,1.8,9.8,5.3,13.3c3.6,3.5,7.9,5.2,13.1,5.2c5.2,0,9.5-1.7,13.1-5.2c3.6-3.4,5.3-7.9,5.3-13.3c0-5.4-1.8-9.8-5.3-13.3
	c-3.6-3.4-7.9-5.2-13.1-5.2c-5.2,0-9.5,1.7-13.1,5.2C699.4,32.2,697.6,36.6,697.6,42z M746.9,36c0-3.2,1.2-5.9,3.5-8.2
	s5.2-3.4,8.5-3.4c3.1,0,5.6,1,7.6,3.1c2,2,2.9,4.9,2.9,8.5v27.2h4.2V36c0-3.2,1.2-5.9,3.5-8.2s5.2-3.4,8.5-3.4c3.1,0,5.6,1,7.6,3.1
	c2,2,2.9,4.9,2.9,8.5v27.2h4.2v-28c0-4.3-1.3-7.9-4-10.7c-2.7-2.8-6-4.3-9.9-4.3c-4.5,0-8.3,1.6-11.4,4.7c-1.2,1.2-2,2.4-2.8,3.8
	c-0.7-1.5-1.5-3-2.7-4.2c-2.7-2.8-6-4.3-9.9-4.3c-4.5,0-8.3,1.6-11.4,4.7c-0.6,0.6-1,1.2-1.5,1.8v-5.6h-4.2v42.1h4.2V36z M65.3,76.4
	l-22.9,44.8L17.1,76.4H-0.1l35.4,62.5v30.6h14.6v-30.6l32.7-62.5H65.3z M136.5,110.5c7,6.7,10.6,15.3,10.6,25.7
	c0,10.4-3.5,18.9-10.6,25.7c-7,6.7-15.7,10.1-25.9,10.1c-10.2,0-18.8-3.4-25.9-10.1c-7-6.7-10.6-15.3-10.6-25.7
	c0-10.4,3.5-18.9,10.6-25.7c7-6.7,15.7-10.1,25.9-10.1C120.8,100.4,129.4,103.7,136.5,110.5z M132.4,136.1c0-6.4-2.1-11.6-6.3-15.7
	c-4.2-4.1-9.4-6.1-15.5-6.1s-11.3,2-15.5,6.1c-4.2,4.1-6.3,9.3-6.3,15.7c0,6.4,2.1,11.6,6.3,15.7c4.2,4.1,9.4,6.1,15.5,6.1
	s11.3-2,15.5-6.1C130.3,147.8,132.4,142.5,132.4,136.1z M209,169.5V103h-14.6v41c0,3.6-1.4,6.7-4.3,9.2c-2.8,2.5-6.2,3.8-10.2,3.8
	c-3.9,0-7.1-1.2-9.5-3.7c-2.4-2.4-3.7-5.8-3.7-10V103h-14.6v43.6c0,7.4,2.2,13.3,6.6,17.7c4.4,4.4,10,6.6,16.6,6.6
	c7.2,0,13.2-2.6,18.1-7.8c0.4-0.4,0.6-0.8,0.9-1.2v7.6H209z M232.3,110.9c-0.4,0.5-0.6,1-1,1.5V103h-14.6v66.5h14.6v-37
	c0-4.4,1.9-8.2,5.7-11.3c3.8-3.1,8.5-4.7,14-4.7h3.1V102h-3.7C243.3,102,237.3,105,232.3,110.9z M284,122.8
	c0,14.2,4.6,25.9,13.8,35.2c9.2,9.3,20.5,13.9,33.9,13.9c13.3,0,24.6-4.5,33.8-13.4c9.3-9,13.9-20.2,13.9-33.8
	c0-3.3-0.1-5.7-0.4-7.3h-51.7v13.3h36.3c-1.1,7.9-4.6,14.3-10.6,19.2c-6,4.9-13.1,7.4-21.3,7.4c-9.2,0-17-3.2-23.5-9.7
	c-6.4-6.5-9.6-14.7-9.6-24.7s3.2-18.3,9.6-24.7c6.4-6.5,14.2-9.7,23.5-9.7c6.4,0,12.2,1.7,17.5,5.1c5.3,3.4,9.3,8,12,13.9l13.2-6.6
	c-3.9-8.3-9.7-14.9-17.3-19.7c-7.6-4.8-16.1-7.2-25.4-7.2c-13.4,0-24.7,4.6-33.9,13.9C288.6,96.9,284,108.7,284,122.8z M384.5,103
	v66.5h14.6v-37c0-4.4,1.9-8.2,5.7-11.3c3.8-3.1,8.5-4.7,14-4.7h3.1V102h-3.7c-7.1,0-13.1,3-18,9c-0.4,0.5-0.6,1-1,1.5V103H384.5z
	 M462.6,169.5v-9.7c-0.8,1.1-1.5,2.3-2.5,3.3c-4.7,5.2-10.7,7.8-17.9,7.8c-6.2,0-11.3-1.8-15.2-5.4c-3.9-3.6-5.9-8.2-5.9-13.9
	c0-5.7,2-10.4,5.9-14.2c3.9-3.8,9.2-6.1,15.9-6.9l19.7-2.3v-1.5c0-3.3-1.4-6.1-4.1-8.4c-2.7-2.3-6-3.5-9.8-3.5
	c-3.5,0-6.6,0.9-9.3,2.8c-2.7,1.9-4.5,4.2-5.2,7l-13.7-4.5c1.8-5.6,5.2-10.1,10.3-13.6c5.1-3.5,10.8-5.2,17.2-5.2
	c7.9,0,14.7,2.4,20.5,7.2c5.8,4.8,8.6,10.5,8.6,17.1v43.6H462.6z M462.6,143.5v-2.7l-16.4,2.1c-7,0.8-10.5,3.4-10.5,7.7
	c0,2.4,1,4.2,2.9,5.5c1.9,1.3,4.5,1.9,7.9,1.9c4.9,0,8.8-1.4,11.7-4.1C461.1,151.3,462.6,147.8,462.6,143.5z M544.5,169.5v-41.6
	c0-8-2.3-14.4-7-19.1c-4.7-4.8-10.5-7.2-17.6-7.2c-7.5,0-13.9,2.9-19,8.6c-0.5,0.6-0.9,1.2-1.3,1.8v-9h-14.6v66.5h14.6v-38.3
	c0-4.3,1.5-8,4.7-11.1c3.1-3.1,6.8-4.6,11.2-4.6c4.3,0,7.7,1.4,10.4,4.2c2.7,2.8,4.1,6.6,4.1,11.5v38.3H544.5z M607.7,169.5v-12.2
	c-1,1.6-2.1,3.1-3.3,4.5c-6,6.8-13.5,10.2-22.3,10.2c-9.2,0-17-3.4-23.2-10.2c-6.2-6.8-9.4-15.3-9.4-25.5c0-10.2,3.1-18.7,9.4-25.5
	c6.2-6.8,14-10.2,23.2-10.2c8.9,0,16.3,3.4,22.3,10.2c1.2,1.4,2.3,2.9,3.3,4.5V69.8h14.6v99.7H607.7z M607.7,136.1
	c0-6.3-2.1-11.5-6.3-15.6c-4.2-4.1-9.4-6.2-15.5-6.2s-11.3,2.1-15.5,6.2c-4.2,4.1-6.3,9.3-6.3,15.6c0,6.3,2.1,11.5,6.3,15.6
	c4.2,4.1,9.4,6.2,15.5,6.2s11.3-2.1,15.5-6.2C605.6,147.6,607.7,142.4,607.7,136.1z M683.5,125.9v43.6h-14.6v-9.7
	c-0.8,1.1-1.5,2.3-2.5,3.3c-4.7,5.2-10.7,7.8-17.9,7.8c-6.2,0-11.3-1.8-15.2-5.4c-3.9-3.6-5.9-8.2-5.9-13.9c0-5.7,2-10.4,5.9-14.2
	c3.9-3.8,9.2-6.1,15.9-6.9l19.7-2.3v-1.5c0-3.3-1.4-6.1-4.1-8.4c-2.7-2.3-6-3.5-9.8-3.5c-3.5,0-6.6,0.9-9.3,2.8
	c-2.7,1.9-4.5,4.2-5.2,7l-13.7-4.5c1.8-5.6,5.2-10.1,10.3-13.6c5.1-3.5,10.8-5.2,17.2-5.2c7.9,0,14.7,2.4,20.5,7.2
	C680.6,113.7,683.5,119.3,683.5,125.9z M668.9,143.5v-2.7l-16.4,2.1c-7,0.8-10.5,3.4-10.5,7.7c0,2.4,1,4.2,2.9,5.5
	c1.9,1.3,4.5,1.9,7.9,1.9c4.9,0,8.8-1.4,11.7-4.1C667.4,151.3,668.9,147.8,668.9,143.5z M746.8,69.8h14.6v99.7h-14.6v-12.2
	c-1,1.6-2.1,3.1-3.3,4.5c-6,6.8-13.5,10.2-22.3,10.2c-9.2,0-17-3.4-23.2-10.2c-6.2-6.8-9.4-15.3-9.4-25.5c0-10.2,3.1-18.7,9.4-25.5
	c6.2-6.8,14-10.2,23.2-10.2c8.9,0,16.3,3.4,22.3,10.2c1.2,1.4,2.3,2.9,3.3,4.5V69.8z M746.8,136.1c0-6.3-2.1-11.5-6.3-15.6
	c-4.2-4.1-9.4-6.2-15.5-6.2s-11.3,2.1-15.5,6.2c-4.2,4.1-6.3,9.3-6.3,15.6c0,6.3,2.1,11.5,6.3,15.6c4.2,4.1,9.4,6.2,15.5,6.2
	s11.3-2.1,15.5-6.2C744.7,147.6,746.8,142.4,746.8,136.1z M776.7,65.8c-3.1,0-5.7,1-7.8,2.9c-2.1,2-3.1,4.4-3.1,7.2
	c0,2.9,1,5.3,2.9,7.3c1.9,2,4.3,3,7.2,3c2.3,0,4-0.6,5.1-1.7c0,3.6-1.3,6.9-3.9,9.8c-2.6,2.9-5.9,4.8-9.9,5.7l4.3,8
	c5-1.5,9.2-4.8,12.8-9.8s5.4-10.3,5.4-15.7c0-4.3-0.9-7.9-2.8-10.8C784.4,67.8,781,65.8,776.7,65.8z M839.4,136.9
	c-4.4-3.5-10.9-5.9-19.3-7.2c-4.6-0.8-7.9-1.8-10-3.1c-2-1.3-3.1-2.9-3.1-5c0-2.1,0.9-3.9,2.8-5.3c1.9-1.4,4.2-2.1,7-2.1
	c3,0,5.7,0.9,8.2,2.6c2.4,1.7,4.2,4.1,5.4,7.2l14.1-4.5c-2.2-5.5-5.9-9.9-11-13.2c-5.1-3.3-10.7-5-17-5c-7,0-12.8,2-17.4,5.9
	c-4.6,3.9-6.9,8.9-7,15c0,11.1,8.5,17.9,25.4,20.5c4.8,0.8,8.3,1.9,10.4,3.2c2.2,1.3,3.3,3,3.3,5.1c0,2.3-1.1,4.2-3.2,5.7
	c-2.1,1.5-4.8,2.2-8,2.2c-3.5,0-6.5-0.9-9.2-2.7c-2.7-1.8-4.7-4.3-6-7.5l-14,4.8c2.4,5.4,6.2,9.7,11.6,12.9
	c5.3,3.2,11.3,4.8,17.9,4.8c7.3,0,13.3-1.9,18.2-5.8c4.9-3.9,7.3-8.8,7.3-14.7C846,145,843.8,140.5,839.4,136.9z M298.7,185
	l52.7,139.6h-39.1l-9.3-27.7h-52.5l-9.5,27.7h-39.1L254.1,185H298.7z M292.4,265.4L277,219.7l-15.7,45.7H292.4z M468.1,191
	l-33.9,7.2v26.7h-16.6h-0.4h-26.9V191l-33.9,7.2v26.7h-17v31.3h17v33.5c0,10.9,3.6,19.4,10.8,25.6s17,9.3,29.5,9.3h20.9v-31.5h-15.8
	c-3.5,0-6.3-1.1-8.4-3.3c-2.1-2.2-3.2-4.9-3.2-8.1v-25.5h26.9h0.4h16.6v33.5c0,10.9,3.6,19.4,10.8,25.6s17,9.3,29.5,9.3h20.9v-31.5
	h-15.8c-3.5,0-6.3-1.1-8.4-3.3c-2.1-2.2-3.2-4.9-3.2-8.1v-25.5h27.3v-31.3h-27.3V191z M499.2,324.6h33.9v-99.7h-33.9V324.6z
	 M516.1,175.1c-5.6,0-10.3,1.9-14.1,5.7c-3.8,3.8-5.7,8.5-5.7,14.1c0,5.6,1.9,10.3,5.7,14.1s8.5,5.7,14.1,5.7
	c5.6,0,10.3-1.9,14.1-5.7c3.8-3.8,5.7-8.5,5.7-14.1c0-5.6-1.9-10.3-5.7-14.1C526.4,176.9,521.7,175.1,516.1,175.1z M592.5,252.8
	c4.7,0,8.8,1.2,12.6,3.6c3.7,2.4,6.4,5.7,8.2,9.8l31.1-14.8c-4.7-9.4-11.6-16.9-20.8-22.3c-9.2-5.4-19.6-8.2-31-8.2
	c-15.2,0-28.1,5.1-38.7,15.2c-10.6,10.1-16,22.9-16,38.5c0,15.6,5.3,28.4,16,38.5c10.6,10.1,23.5,15.2,38.7,15.2
	c11.3,0,21.5-2.7,30.7-8c9.2-5.3,16.1-12.5,20.7-21.5l-31.1-14.8c-4,8.2-10.8,12.4-20.3,12.4c-5.9,0-10.8-2-14.8-6.1
	c-4-4.1-6-9.3-6-15.7s2-11.6,6-15.7C581.7,254.9,586.7,252.8,592.5,252.8z"/>
</svg>
