<?xml version="1.0" encoding="utf-8"?>
<!-- Generator: Adobe Illustrator 28.0.0, SVG Export Plug-In . SVG Version: 6.00 Build 0)  -->
<svg version="1.1" id="Layer_1" xmlns="http://www.w3.org/2000/svg" xmlns:xlink="http://www.w3.org/1999/xlink" x="0px" y="0px"
	 viewBox="0 0 1204.5 200.4" style="enable-background:new 0 0 1204.5 200.4;" xml:space="preserve">
<style type="text/css">
	.st0{fill:#FFFFFF;}
</style>
<g>
	<path class="st0" d="M797.4,115.6c-0.6,0.6-1.1,1.1-1.1,2.3c0,1.7,0.6,2.3,1.7,2.9c1.1,0.6,3.4,0.6,5.7,0.6
		c5.7,0,10.3-0.6,13.7-1.1l0,0c3.4-0.6,5.7-1.7,7.4-3.4c1.1-1.1,1.7-2.9,1.7-5.2l-26.9,2.9C799.2,114.5,798,115.1,797.4,115.6z"/>
	<path class="st0" d="M482.6,115.6c-0.6,0.6-1.1,1.1-1.1,2.3c0,1.7,0.6,2.3,1.7,2.9c1.1,0.6,3.4,0.6,5.7,0.6
		c5.7,0,10.3-0.6,13.7-1.1l0,0c3.4-0.6,5.7-1.7,7.4-3.4c1.1-1.1,1.7-2.9,1.7-5.2l-26.9,2.9C484.3,115.1,483.2,115.1,482.6,115.6z"/>
	<path class="st0" d="M0,0v200.4h1204.5V0C1204.5,0,0,0,0,0z M131.7,123.1c-2.9,6.9-7.4,12-13.7,15.5c-6.3,3.4-13.2,5.7-21.8,5.7
		c-10.3,0-18.3-2.3-23.5-6.9c-5.2-4.6-8.6-10.3-9.7-17.7h-1.7v52.1H29.2V55h30.3v23.5h1.7c1.7-8.6,4.6-14.9,10.3-18.9
		s13.2-6.3,23.5-6.3c9.2,0,16.6,1.7,22.9,5.7l0,0c6.3,3.4,10.9,8.6,14.3,15.5c3.4,6.9,4.6,14.9,4.6,24.6S134.5,116.2,131.7,123.1z
		 M244.4,142h-30.3v-26.3h-1.7c-0.6,4.6-2.3,9.7-4.6,13.7c-2.3,4-6.3,8-11.4,10.3c-5.2,2.9-11.4,4-19.5,4c-8,0-14.9-1.7-20-4.6
		c-5.2-2.9-9.2-6.9-12-12c-2.9-5.2-4-10.9-4-17.2V53.8h32.6v44.1c0,5.7,1.7,10.3,4,12.6c2.9,2.3,8,3.4,15.5,3.4
		c7.4,0,12.6-1.1,14.9-3.4c2.3-2.3,4-6.3,4-11.4V53.8l0,0h32.6V142z M337.2,130.5c-3.4,4-8.6,7.4-15.5,9.7s-14.9,3.4-24.6,3.4
		c-15.5,0-26.9-2.9-35.5-8.6c-8-5.7-12-13.7-12-23.5v-0.6h32.6v1.7c0,2.3,1.1,4,2.9,4.6c1.7,0.6,5.7,1.1,12,1.1
		c5.7,0,9.2-0.6,10.9-1.1c1.7-0.6,2.3-1.7,2.3-3.4c0-1.1-0.6-2.3-1.7-2.9s-4-1.1-8-1.7l-25.2-2.9c-9.2-1.1-16-3.4-20.6-7.4
		c-4.6-4-6.9-10.3-6.9-17.2c0-5.2,1.7-9.7,4.6-14.3c2.9-4.6,7.4-8,14.3-10.3c6.9-2.9,15.5-4,26.3-4c10.3,0,18.9,1.1,25.8,3.4
		c6.9,2.3,12,6.3,15.5,10.9c3.4,4.6,5.2,10.9,5.2,17.7v0.6h-32.6v-1.1c0-1.7-0.6-2.9-1.1-4c-0.6-1.1-1.7-1.7-4-2.3
		c-2.3-0.6-5.7-0.6-9.7-0.6c-5.2,0-8.6,0.6-9.7,1.1c-1.1,0.6-1.7,1.7-1.7,3.4c0,1.1,0.6,2.3,1.7,2.9c1.1,0.6,4.6,1.1,9.7,1.7
		l17.2,1.7c12.6,1.1,21.8,4,26.3,8.6l0,0c5.2,4,7.4,10.3,7.4,17.7C342.3,121.4,340.6,125.9,337.2,130.5z M412.7,142.5l-18.3-28.1
		h-16v28.1h-32.6V25.8h32.6v59h15.5l19.5-30.3h38.4l-30.9,42.4l0,0l30.3,45.2h-38.4V142.5z M544.4,142.5h-30.3v-18.3h-1.7
		c-1.7,6.3-5.2,10.9-10.9,14.9c-5.2,3.4-12.6,5.7-22.3,5.7c-9.7,0-17.2-2.3-22.9-6.3c-5.2-4-8-10.3-8-17.7c0-4,1.1-8,2.9-10.9
		c1.7-3.4,5.2-5.7,9.2-8c4-1.7,9.7-3.4,16-4l35.5-3.4v-1.7c0-4.6-1.1-7.4-3.4-8.6c-2.3-1.1-6.3-1.7-12-1.7c-5.2,0-9.2,0.6-10.9,1.7
		c-1.7,1.1-2.9,4-2.9,7.4v0.6H450v-0.6c0-8,1.7-14.3,6.3-20c4-5.7,9.7-10.3,17.2-13.2c7.4-3.4,15.5-4.6,25.8-4.6
		c10.3,0,18.9,1.7,25.2,4.6l0,0c6.9,3.4,11.4,7.4,14.9,13.7c3.4,6.3,5.2,13.2,5.2,21.2C544.4,93.3,544.4,142.5,544.4,142.5z
		 M652,142h-32.6V97.9c0-6.3-1.1-10.3-4-12.6c-2.9-2.3-7.4-3.4-14.9-3.4c-7.4,0-12,1.1-14.3,3.4c-2.3,2.3-3.4,6.3-3.4,11.4V142
		h-32.6V55h30.3v26.3h1.7c0.6-5.2,2.3-9.7,4.6-13.7c2.3-4,6.3-8,10.9-10.3c5.2-2.9,11.4-4,18.9-4c7.4,0,14.3,1.7,19.5,4.6
		c5.2,2.9,9.2,6.9,11.4,12l0,0c2.3,5.2,4,10.9,4,17.2v55H652z M714.4,161.4c-4,4-9.2,6.3-15.5,8c-5.7,1.7-13.2,2.3-21.8,2.3h-16V142
		h25.2c2.9,0,4.6-0.6,6.3-1.1l-41.8-86.4h37.2L703,88.7l6.3,20h2.3l5.7-20.6l13.2-34.3h36.6l-41.8,91.6
		C721.9,152.3,718.4,158,714.4,161.4z M859.3,142.5h-30.3v-18.3h-1.7c-1.7,6.3-5.2,10.9-10.9,14.9c-5.2,3.4-12.6,5.7-22.3,5.7
		c-9.7,0-17.2-2.3-22.9-6.3c-5.2-4-8-10.3-8-17.7c0-4,1.1-8,2.9-10.9c1.7-3.4,5.2-5.7,9.2-8c4-1.7,9.7-3.4,16-4l35.5-3.4v-1.7
		c0-4.6-1.1-7.4-3.4-8.6c-2.3-1.1-6.3-1.7-12-1.7c-5.2,0-9.2,0.6-10.9,1.7c-1.7,1.1-2.9,4-2.9,7.4v0.6h-32.6v-0.6
		c0-8,1.7-14.3,6.3-20c4-5.7,9.7-10.3,17.2-13.2c7.4-3.4,15.5-4.6,25.8-4.6c10.3,0,18.9,1.7,25.2,4.6l0,0
		c6.9,3.4,11.4,7.4,14.9,13.7c3.4,6.3,5.2,13.2,5.2,21.2L859.3,142.5L859.3,142.5z M1159.2,142h-40.6l-11.4-34.9l-6.3-26.3h-2.3
		l-6.9,26.3l-11.4,34.9h-40.6l-18.9-76.1l-20,76.1H960L948.6,107l-6.3-26.3H940l-6.9,26.3L921.7,142H881l-22.3-87.6h33.8l6.3,31.5
		l3.4,31.5h2.3l7.4-34.9l8.6-28.1h41.8l8.6,28.1l7.4,34.9h2.3l3.4-31.5l6.3-31.5h61.3l6.3,31.5l3.4,31.5h2.3l7.4-34.9l8.6-28.1h41.8
		l8.6,28.1l7.4,34.9h2.3l3.4-31.5l6.3-31.5h33.2l0,0L1159.2,142z"/>
	<path class="st0" d="M95,84.2c-2.9-1.1-6.9-1.7-12-1.7c-7.4,0-12.6,1.1-16,2.9c-3.4,1.7-5.2,6.3-5.2,12.6v1.7c0,4,0.6,6.9,2.3,9.2
		c1.7,2.3,4,3.4,6.9,4.6c2.9,1.1,6.9,1.1,12,1.1s9.2-0.6,12-1.7c2.9-1.1,5.2-2.9,6.3-5.2s1.7-5.2,1.7-9.2c0-4-0.6-6.9-1.7-9.2
		C100.2,87,97.9,85.3,95,84.2z"/>
</g>
</svg>
