<?xml version="1.0" encoding="utf-8"?>
<!-- Generator: Adobe Illustrator 28.0.0, SVG Export Plug-In . SVG Version: 6.00 Build 0)  -->
<svg version="1.1" id="Слой_1" xmlns="http://www.w3.org/2000/svg" xmlns:xlink="http://www.w3.org/1999/xlink" x="0px" y="0px"
	 viewBox="0 0 256 256" style="enable-background:new 0 0 256 256;" xml:space="preserve">
<style type="text/css">
	.st0{fill:#FFFBF4;}
</style>
<path class="st0" d="M212.2,103.5l-8.5-6.9c-4.6-3.7-7.5-9.1-8.1-14.9l-1.1-10.8c-1.3-12.1-12.2-21-24.3-19.7l-10.8,1.1
	c-5.8,0.6-11.6-1.1-16.2-4.8l-8.5-6.9c-9.5-7.7-23.4-6.3-31.1,3.2l-6.9,8.5c-3.7,4.6-9.1,7.5-14.9,8.1l-10.8,1.1
	c-12.1,1.3-21,12.2-19.7,24.3l1.1,10.8c0.6,5.8-1.1,11.6-4.8,16.2l-6.9,8.5c-7.7,9.5-6.3,23.4,3.2,31.1l8.5,6.9
	c4.6,3.7,7.5,9.1,8.1,14.9l1.1,10.8c1.3,12.1,12.2,21,24.3,19.7l10.8-1.1c5.8-0.6,11.6,1.1,16.2,4.8l8.5,6.9
	c9.5,7.7,23.4,6.3,31.1-3.2l6.9-8.5c3.7-4.6,9.1-7.5,14.9-8.1l10.8-1.1c12.1-1.2,21-12.1,19.7-24.3l-1.1-10.8
	c-0.6-5.8,1.1-11.6,4.8-16.2l6.9-8.5C223.1,125.1,221.7,111.2,212.2,103.5z M162.7,162.7c-18.9,18.9-49.6,18.9-68.6,0
	s-18.9-49.6,0-68.6s49.6-18.9,68.6,0S181.7,143.8,162.7,162.7z"/>
</svg>
